<?xml version="1.0" encoding="utf-8"?>
<!DOCTYPE svg PUBLIC "-//W3C//DTD SVG 1.1//EN" "http://www.w3.org/Graphics/SVG/1.1/DTD/svg11.dtd">
<svg version="1.1" id="Layer_1" xmlns="http://www.w3.org/2000/svg" xmlns:xlink="http://www.w3.org/1999/xlink" x="0px" y="0px"
	 viewBox="0 0 3000 2250" enable-background="new 0 0 3000 2250" xml:space="preserve">
<linearGradient id="SVGID_1_" gradientUnits="userSpaceOnUse" x1="1500" y1="2250" x2="1500" y2="-6.734490e-008">
	<stop  offset="0" style="stop-color:#000000"/>
	<stop  offset="0.1486" style="stop-color:#212121"/>
	<stop  offset="0.3831" style="stop-color:#515151"/>
	<stop  offset="0.5" style="stop-color:#636363"/>
	<stop  offset="0.5848" style="stop-color:#5A5A5A"/>
	<stop  offset="0.7231" style="stop-color:#424242"/>
	<stop  offset="0.8967" style="stop-color:#1B1B1B"/>
	<stop  offset="1" style="stop-color:#000000"/>
</linearGradient>
<rect fill="url(#SVGID_1_)" width="3000" height="2250"/>
<g>
	<path fill="#FEFEFE" stroke="#FEFEFE" stroke-width="0.0938" stroke-miterlimit="10.43" d="M1442.3337,376.0688
		c2.22-3.65,4.96-8.78,9.98-8.27c2.98-0.39,5.22,2.41,6.02,4.99c0.88,9.26-2.0699,18.22-4.1,27.12
		c-7.4401,25.99-12.78,52.65-14.39,79.66c-0.91,5.76-0.1901,11.65-0.41,17.47c-0.4399,10.39,1.62,20.65,2.04,31
		c0.65,6.56-5.38,13.6-12.25,12.14c-5.8101-2.52-5.65-9.92-6.63-15.23c-0.26-9.48-0.1801-18.98-0.03-28.47
		c0.8101-4.72,0.54-9.58,1.3101-14.3c0.3099-8.97,1.9299-17.82,2.73-26.75c0.39-2.3,0.75-4.61,1-6.94c0.39-2.32,0.76-4.65,0.99-6.99
		c2.12-13.53,4.24-27.06,7.01-40.47C1437.4237,392.6188,1438.7738,383.9588,1442.3337,376.0688z"/>
	<path fill="#FEFEFE" stroke="#FEFEFE" stroke-width="0.0938" stroke-miterlimit="10.43" d="M765.6738,373.4588
		c5.41-2.81,12.5-0.8,15.96,4.12c-0.08,5.78-1.87,11.42-4.32,16.6c-2.31,4.24-6.79,6.37-11.07,8.11c-1.33,0-2.65,0.01-3.96,0.02
		c-2.72-6.09-5.73-12.56-5.33-19.38C757.6937,378.3388,761.9037,375.5588,765.6738,373.4588z"/>
	<path fill="#FEFEFE" stroke="#FEFEFE" stroke-width="0.0938" stroke-miterlimit="10.43" d="M397.7538,401.4088
		c18.93-7.44,39.16-11.31,59.41-12.63c7.41,0.26,15.01-0.87,22.18,1.55c9.67,2.87,18.5,10.59,20.54,20.77
		c1.42,9.65-4.35,18.33-10.14,25.46c-5.26,6.82-12.14,12.06-18.8,17.42c2.35,1.62,5.05,2.53,7.7,3.53
		c9.6,4.6,18.38,12.62,20.75,23.37c1.29,6.65,0.85,13.86-2.15,20.04c-4.08,8.67-10.55,16.07-17.85,22.19
		c-13.16,11.59-29.53,20.27-47.23,21.66c-5.91,0.09-11.93,0.48-17.56-1.6801c-1.23-0.93-2.63-1.66-3.6-2.85
		c-0.79-4.4,1.02-9.44,5.24-11.38c8.46-4.12,18.12-0.55,26.93-3.13c11.69-3.42,22.29-10.28,30.66-19.08
		c5.5-5.87,9.73-13.97,7.81-22.2c-3.92-13.76-21.88-20.84-34.34-14.16c-2.16,0.94-4.34,1.83-6.47,2.84
		c-4.05,1.04-8.31,0.81-12.39,0.11c-2.69-2.32-3.82-6.04-2.74-9.42c5.12-4.17,11.46-6.51,17.4-9.26
		c10.84-4.49,20.2-11.91,28.22-20.36c5.28-5.37,10.63-12.3,9.59-20.3c-0.99-4.61-4.98-7.99-9.44-9.09
		c-7.65-1.98-15.63-0.76-23.4-0.38c-8.01,1.5-16.18,2.52-23.84,5.45c-2.53,0.79-4.92,2.06-6.73,4.03
		c-0.76,4.92-2.02,9.75-2.66,14.69c-0.38,1.99-0.72,4-1.01,6.01c-3.53,22.3-6.97,44.62-9.72,67.03c-1.29,8.45-0.33,17.03-0.68,25.54
		c-0.46,4.56-2.33,9.69-7.16,11.16c-2.98-0.19-6.36,0.59-8.85-1.5c-2.47-1.5-3.2-4.42-4.37-6.85c-0.6-3.23-1-6.58-0.24-9.81
		c1.43-6.69,3.12-13.33,4.31-20.07c2.1-11.18,3.83-22.42,5.48-33.67c1.54-11.81,3.41-23.6,4.38-35.47c-0.23-3.08,0.82-6.7-1.33-9.29
		c-2.48-2.85-6.69-0.27-9.61-2.17c-2.61-1.71-3.06-5.22-2.43-8.04C386.7238,406.3388,392.4138,403.6388,397.7538,401.4088z"/>
	<g>
		<path fill="#FEFEFE" stroke="#FEFEFE" stroke-width="0.0938" stroke-miterlimit="10.43" d="M1305.7137,396.2988
			c18.74-4.8,38.04-8.27,57.46-7.51c12.8401,0.81,26.78,4.74,34.9601,15.36c6.45,8.08,6.6,19.59,3.4299,29.05
			c-3.1899,8.66-9.1,16.24-16.28,21.98c-17.1399,14.39-38.7,22.2-60.21,27.31c-6.33,1.66-12.9,2.42-19.0699,4.61
			c-3.0901,0.49-2.77,4.11-3.2201,6.45c-0.9299,10.82-1.46,21.66-1.34,32.53c-0.09,5.49-3.04,12.3199-9.25,12.74
			c-4.99,0.65-8.9-4.08-8.75-8.78c-0.38-8.01,0.91-15.95,1.72-23.89c1.54-12.22,2.9801-24.44,4.4401-36.67
			c0.99-8.34,2.04-16.67,3-25.01c1-9.04,2.88-18.55-0.12-27.39c-4.6901-1.74-6.04-6.96-5.59-11.47
			C1291.3738,399.7988,1299.1338,398.4988,1305.7137,396.2988z M1313.3337,411.3788c-1.36,0.39-0.95,2.24-1.3,3.31
			c-2.09,18.67-4.1599,37.4-6.7699,55.98c7.0199-1.47,14.21-2.15,21.11-4.22c12.4299-2.83,24.33-7.66,35.6599-13.44
			c8.3501-4.5,16.66-9.94,21.9501-18.02c3.4-4.99,4.24-11.31,3.14-17.16c-1.2201-4.79-4.7001-8.73-9.12-10.84
			c-8.9-4.52-19.14-3.8-28.79-3.69C1336.9838,404.5588,1324.9237,407.2888,1313.3337,411.3788z"/>
	</g>
	<path fill="#FEFEFE" stroke="#FEFEFE" stroke-width="0.0938" stroke-miterlimit="10.43" d="M693.2338,421.9988
		c5.04-0.43,10.5099-0.75,15.12,1.71c3.7,2.69,4.5,7.38,4.21,11.67c-1.48,2.68-3.89,5.97-7.37,5.42c-3.05-0.65-5.7-3.1-9-2.54
		c-5.27,0.66-10.01,3.28-14.9,5.18c-6.63,3.14-13.96,6.43-17.77,13.09c-2.5,4.97-0.63,11.28,3.7,14.59
		c12.01,9.6,28.12,12.91,38.92,24.18c6.14,6.36,6.6,17.01,1.44,24.08c-4.08,5.84-10.53,9.46-16.97,12.15
		c-10.64,4.32-21.86,7.48-33.35,8.27c-5.52-0.13-11.49,0.77-16.52-2.07c-4.05-1.97-5.87-7.15-4.36-11.29
		c1.24-2.73,4.3-3.57,6.81-4.69c3.95-0.34,7.82,0.44,11.64,1.4c4.83,0.44,9.69-0.19,14.49-0.74c9.25-2.16,19.88-3.5,26.4-11.2
		c-0.55-1.86-0.85-3.97-2.39-5.31c-5.83-6.2-13.78-9.65-21.17-13.57c-7.12-4.15-14.63-7.91-20.61-13.68
		c-2.92-3.13-5.42-7.17-5.13-11.62c-0.86-12.51,6.85-24.06,16.88-30.89C672.4138,429.8788,682.2537,424.1288,693.2338,421.9988z"/>
	<path fill="#FEFEFE" stroke="#FEFEFE" stroke-width="0.0938" stroke-miterlimit="10.43" d="M1042.7338,436.0788
		c11.73-7.65,24.8099-15.75,39.4199-14.29c2.13,0.56,4.2201,1.24,6.26,2.12c0.9501,1.4,1.9501,2.78,2.9601,4.16
		c0.4099,3.14,1.5499,6.83-0.63,9.58c-1.1,1.21-2.48,2.13-3.67,3.21c-3.27,0.36-5.9299-1.69-8.9-2.55
		c-5.27-0.55-10.02,2.25-14.7899,4.03c-7.4301,3.25-15.52,6.65-20.15,13.69c-2.66,4.86-1.1901,11.38,3.15,14.79
		c8.58,7.01,19.22,10.71,28.71,16.25c5.5,3.7,11.51,7.52,14.1801,13.9c1.7799,3.43,1.0699,7.36,1.22,11.06
		c-2.41,9.41-10.74,15.48-19.26,19.04c-13,5.29-26.88,9.3-41.03,8.75c-5.37,0.24-11.38-1.4-14.22-6.34
		c-0.84-3.47-0.95-7.47,2.17-9.86c2.28-0.8,4.49-2.1,7.0099-1.9c4.1101-0.35,7.91,1.83,12.02,1.58c8.12,0.04,16.11-1.56,23.89-3.79
		c5.21-1.6,10.4301-3.88,14.08-8.09c-0.3899-2.05-0.84-4.27-2.48-5.71c-7.7899-7.97-18.6699-11.48-27.9099-17.34
		c-7.1801-4.39-15.76-8.87-18.41-17.49c-2.68-13.77,5.41-28.01,17.1799-34.93L1042.7338,436.0788z"/>
	<path fill="#FEFEFE" stroke="#FEFEFE" stroke-width="0.0938" stroke-miterlimit="10.43" d="M1134.8237,431.6188
		c9.66-5.95,20.7001-11.05,32.35-9.83c2.11,0.57,4.2001,1.24,6.24,2.12c0.9501,1.4,1.9501,2.78,2.9601,4.17
		c0.4099,3.13,1.5399,6.8-0.62,9.56c-1.1001,1.22-2.48,2.13-3.67,3.22c-3.26,0.36-5.92-1.67-8.88-2.55
		c-5.27-0.56-10.03,2.24-14.8,4.02c-7.0199,3.09-14.6299,6.22-19.36,12.58c-2.0699,2.3-2.25,5.64-2.0299,8.58
		c1.23,6.45,7.4199,9.89,12.6399,12.89c8.64,5.13,18.38,8.4,26.26,14.78c5.4301,3.79,10.15,9.97,9.5801,16.92
		c-0.02,1.31-0.02,2.63,0,3.95c-2.29,8.87-9.85,14.86-17.87,18.42c-13.67,5.82-28.41,10.04-43.38,9.36
		c-5.0901,0.11-10.6-1.72-13.26-6.34c-0.3201-2.62-1.26-5.6,0.47-7.93c2.97-3.72,8.29-4.37,12.7-3.53
		c9.3501,2.71,19.2101,0.61,28.4501-1.54c6.4-1.65,13.09-3.93,17.5599-9.07c-0.4199-2.01-0.83-4.22-2.45-5.64
		c-7.77-7.99-18.65-11.51-27.9-17.35c-7.1899-4.41-15.8099-8.9-18.46-17.54c-1.42-7.37,0.1799-15.23,4.1-21.63
		C1119.8237,441.4688,1127.2338,436.0088,1134.8237,431.6188z"/>
	<g>
		<path fill="#FEFEFE" stroke="#FEFEFE" stroke-width="0.0938" stroke-miterlimit="10.43" d="M973.3038,424.9188
			c4.49-0.24,9.3199-0.79,13.43,1.48c5.08,2.9,8.87,8.61,8.28,14.61c0.23,8.49-3.81,16.3-8.97,22.78
			c-8.37,9.53-18.69,17.08-29.32,23.86c-5.77,4.02-12.3,6.8-18.06,10.83c-2.48,1.72-2.33,4.99-2.19,7.66
			c0.22,7.1,5.65,13.74,12.77,14.84c14.67,2.37,28.75-5.08,39.44-14.53c4.31-3.26,7.32-8.06,12.02-10.8
			c2.19-1.61,4.73,0.97,4.31,3.28c0.64,6.64-3.85,12.22-8.14,16.74c-7.7599,8.29-17.3,14.89-27.8199,19.16
			c-11.09,3.7599-24.01,4.79-34.69-0.79c-10.51-5.86-15.39-18.47-14.9301-30.06c-0.6299-13.43,2.9-26.8,8.9901-38.7
			c5.53-11.49,13.46-21.77,23.0699-30.13C957.7537,429.9788,965.2637,426.2488,973.3038,424.9188z M969.6337,439.8588
			c-5.18,1.81-9.49,5.46-13.07,9.52c-9.5099,9.6-15.5,22.19-18.66,35.21c12.84-7.96,26.11-16,35.94-27.69
			c3.73-4.5,7.07-11.04,3.94-16.74C975.2637,438.8688,972.2637,439.0188,969.6337,439.8588z"/>
	</g>
	<g>
		<path fill="#FEFEFE" stroke="#FEFEFE" stroke-width="0.0938" stroke-miterlimit="10.43" d="M1510.6837,438.3388
			c7.0601-5.73,15.3101-10.44,24.47-11.54c3.3401,0,7-0.61,10,1.29c3.42,2.03,5.1201,5.74,7.3501,8.86c2.1,2.51,6.01,1.06,8.39,3.16
			c0.71,0.6,1.4199,1.23,2.1399,1.89c0.26,5.76-0.7999,11.42-1.95,17.04c-0.33,2-0.63,4-0.99,6c-1.61,9.95-3.47,19.95-3.17,30.07
			c-0.01,7.75,0.3501,15.99,4.3,22.88c1.6899,3.05,4.99,4.44,7.47,6.7c1.62,1.26,1.17,3.45,1.4,5.24c-2.98,4.96-8.99,8.5-14.86,7.23
			c-6.1-2.26-9.37-8.53-11.3101-14.34c-2.64-8.31-3.26-17.11-2.96-25.78c-10.33,14.1-22.71,27.61-39.02,34.72
			c-6.51,2.68-14.41,4.14-20.86,0.58c-5.62-3.15-8.73-9.27-10.12-15.35c-1.6-18.9,6.26-37.11,16.78-52.39
			C1494.2137,454.9188,1501.6837,445.7888,1510.6837,438.3388z M1516.2937,452.1688c-7.1799,7.65-13.34,16.25-18.6,25.33
			c-4.35,7.26-7.8099,15.13-9.5,23.45c-0.1,4.81-1.34,10.27,1.7001,14.47c2.59,3.41,7.6599,2.73,11.1599,1.23
			c8.14-4.02,14.62-10.56,20.75-17.12c7.3201-8.23,14.3-17.06,18.4601-27.35c2.9099-6.87,3.99-14.53,2.85-21.9
			c-0.65-3.63-2.9301-7.29-6.8101-7.95C1528.2538,441.1788,1521.7137,447.0788,1516.2937,452.1688z"/>
	</g>
	<path fill="#FEFEFE" stroke="#FEFEFE" stroke-width="0.0938" stroke-miterlimit="10.43" d="M534.9637,437.6688
		c1.49-2.52,3.62-4.51,6.18-5.93c4.89-0.8,10.41,1.51,11.77,6.61c0.97,8.63-3.12,16.55-5.58,24.56c-3.99,10.99-7.1,22.45-7.88,34.15
		c0.33,6.49-1.47,14.57,3.99,19.45c5.81,2.61,11.82-1.32,16.43-4.68c12.69-10,22.03-23.69,28.91-38.17
		c4.5-9.11,7.55-18.85,11.74-28.09c0.99-2.49,2.87-4.39,4.88-6.08c2.6-0.56,5.75-1.59,8.02,0.38c3.03,2.31,2.9,6.6,2.27,10
		c-2.74,9.83-4.94,19.85-6.06,30c-1.17,8.01-0.51,16.13-0.63,24.19c0.64,5.51,1.46,11.16,3.99,16.17
		c2.0601,3.63,5.97,5.91,7.28,10.04c-1.85,5.1899-8.17,7.72-13.36,6.97c-4.93-1.39-7.42-6.44-9.3-10.77
		c-4.11-11.37-3.7401-23.65-3.64-35.55c-6.35,10.06-13.09,19.97-21.42,28.51c-7.72,7.03-16.39,14.63-27.3101,15.37
		c-7.1299,0.9-12.9399-4.62-16.79-9.96c-5.11-8.0099-4.71-17.83-4.45-26.93c1.51-14.23,5.23-28.08,8.48-41.98
		C533.6237,449.8988,535.1837,443.8488,534.9637,437.6688z"/>
	<path fill="#FEFEFE" stroke="#FEFEFE" stroke-width="0.0938" stroke-miterlimit="10.43" d="M742.8638,451.3588
		c0.69-6.37,0.42-14.45,6.5-18.36c4.66-0.9,10.74,0.38,12.79,5.18c1.02,3.93-0.43,7.93-1.39,11.73
		c-5.06,17.99-10.63,36.23-10.33,55.1c0.1201,4.83-0.37,9.7,0.35,14.5c0.57,4.23,1.78,8.39,1.76,12.7
		c-1.99,2.54-4.41,4.71-7.35,6.07c-4.95,1.08-9.87-2.02-10.79-7.05c-2.1-10.62-0.7-21.57,0.58-32.22
		C736.8337,482.9988,740.3638,467.2588,742.8638,451.3588z"/>
	<path fill="#FEFEFE" stroke="#FEFEFE" stroke-width="0.0938" stroke-miterlimit="10.43" d="M793.0737,447.8588
		c0.7-5.18,3.43-10.19,7.78-13.19c2.05,0.07,4.11,0.32,6.14,0.78c3.91,2.4,4.6,7.39,4.48,11.61c0.47,13.8-2.84,27.35-5.16,40.87
		c-0.96,5.88-2.85,11.72-2.2599,17.74c1.59-1.28,2.86-2.91,3.87-4.69c7.88-13.51,14.45-27.78,23-40.92
		c4.2-5.99,8.53-12.18,14.71-16.31c5.23-3.87,12.11-5.35,18.49-4.17c5.86,1.75,10.45,6.67,12.59,12.32
		c5.89,14.71,5.65,30.84,8.58,46.22c1.09,4.67,1.32,11.18,6.43,13.33c4.69,1.8,8.87-2.09,13.53-1.72c0.57,0.8,1.17,1.6,1.78,2.4
		c1.05,5.77-3.55,10-7.69,13.12c-5.93,3.79-14.17,4.44-20.35,0.96c-7.0099-4.61-7.74-13.75-9.2599-21.24
		c-2.51-13.22-1.69-27.12-6.62-39.81c-1.33-3.25-3.72-7.6-7.89-6.92c-5.72,0.64-9.8,5.49-13.02,9.86
		c-12.34,17.66-20.61,37.71-31.95,55.97c-2.84,4.54-6.72,8.86-12.08,10.26c-3.36-0.65-7.33-1.02-9.35-4.17
		c-2.9-3.82-1.75-8.89-1.72-13.32c2.41-16.17,4.99-32.39,5.46-48.76C793.4537,461.3788,792.6237,454.5888,793.0737,447.8588z"/>
	<path fill="#FEFEFE" stroke="#FEFEFE" stroke-width="0.0938" stroke-miterlimit="10.43" d="M1603.3538,434.7188
		c4.2999-0.59,9.42,1.6,9.96,6.37c1.4601,7.72,0.61,15.76-0.48,23.5c-1.63,11.4-3.96,22.67-6.04,33.99
		c-0.4399,2.34-0.39,4.72-0.3199,7.09c2.38-1.46,3.54-4.06,4.9-6.37c5.4099-9.34,10.21-19.01,15.48-28.42
		c5.03-8.47,10.0499-17.17,17.29-23.98c4.9199-4.51,11.2699-7.91,18.1-7.67c7.6-0.57,14.01,5.51,16.73,12.14
		c7.1,17.31,5.64,36.56,10.5599,54.41c0.9401,3.37,3.8201,6.61,7.64,6.05c3.5801,0.4,6.54-2.67,10.13-2
		c3.0701,1.2,2.4,5.29,1.7001,7.8c-2.86,4.64-7.28,8.6-12.62,10.08c-6.74,1.71-15.12,0.6801-19.15-5.68
		c-3.75-6.71-4.5701-14.59-5.72-22.07c-1.77-11.25-1.52-22.94-5.4801-33.75c-1.1799-3.08-2.7-6.52-5.9199-7.87
		c-5.8-1.02-10.55,3.57-13.87,7.7c-12.0901,16.34-20.05,35.2-30.27,52.67c-3.03,5.11-6.01,10.66-11.2,13.9
		c-3.88,2.63-9.3501,1.47-12.67-1.5c-3.67-3.73-2.64-9.42-2.5-14.13c3.3099-21.49,6.26-43.14,5.84-64.93
		C1595.0138,445.4688,1597.7638,438.4588,1603.3538,434.7188z"/>
	<path fill="#FEFEFE" stroke="#FEFEFE" stroke-width="0.0938" stroke-miterlimit="10.43" d="M1256.3438,614.8688
		c5.92-0.98,11.9301-0.44,17.91-0.57c11.33-0.17,22.6899,0.38,34.01-0.4c28.6399,0,57.2899,0,85.9399,0
		c9.63,0.77,19.3201,0.2,28.98,0.44c6.64,1.11,13.4,0.26,20.11,0.65c6.1801,0.6,12.4,0.19,18.61,0.3l1.05,0.65
		c9.13-0.34,18.22,0.5,27.35,0.41c5.4401,1.04,11,0.17,16.49,0.85c12.37,0.11,24.7001,1.37,37.1001,1.09l1.0699,0.65
		c15.67-0.29,31.25,1.58,46.9301,1.34l1.0699,0.66c15.01-0.25,29.92,1.62,44.9399,1.35l1.05,0.65
		c22.67,0.09,45.25,2.29,67.9301,2.34l1.0599,0.65c4.14-0.03,8.3-0.19,12.4501,0.27c3.5399,0.38,7.2-0.42,10.6799,0.61
		c14.4301,0.15,28.78,1.42,43.21,1.53c9.2001,1.29,18.6001,0.19,27.78,1.7401c-0.2899,4.14-0.9299,8.25-0.8099,12.42
		c-5-0.5-10.03-0.17-15.02-0.69c-3.63-0.31-7.36,0.47-10.89-0.56c-45.39-1.56-90.7-3.97-136.08-5.68
		c-8.26-1.02-16.7101-0.21-24.91-1.32c-3.9301-0.2-7.86,0.09-11.75-0.39c-3.75-0.41-7.61,0.45-11.25-0.61
		c-11.4401-0.05-22.8201-0.94-34.23-1.25c-4.5701-0.7-9.29,0.41-13.77-0.75c-16.4501-0.19-32.8101-1.53-49.26-1.58
		c-5-1.01-10.11-0.16-15.14-0.73c-4.61-0.44-9.24,0.04-13.83-0.26c-5.61-1.04-11.3201-0.24-16.9701-0.6
		c-6.2899-0.64-12.62-0.16-18.9199-0.33c-11.25-1.42-22.64,0.1-33.92-0.97c-28.73-0.05-57.45,0.01-86.1699-0.03
		c-16.3201,0.86-32.6801,0.14-49.01,0.47c-4.61,0.88-9.3,0.46-13.9401,0.54c-23-0.2-45.96,0.72-68.97,0.38
		c-13.61,1.18-27.34,0.41-41,0.61c-18.34,0.77-36.71,0.28-55.0601,0.39c-13.26,1.27-26.6399,0.34-39.95,0.62
		c-14.01-0.3-27.98,0.59-41.98,0.4c-13.69,0.01-27.38-0.02-41.07,0.01c-8.24,1.13-16.59,0.38-24.88,0.59
		c-18.35,0-36.71,0.02-55.06-0.01c-12.67,0.77-25.38,0.26-38.06,0.41c-23.33,0-46.67-0.02-70,0.01c-8.28,1.14-16.67,0.38-25,0.59
		c-30.67,0-61.33,0-91.99,0c-16.33,0.18-32.6801-0.4-48.98,0.41c-90.04-0.03-180.07,0-270.11-0.02c0.01-4.28-0.01-8.5699,0.02-12.85
		c85.71-0.01,171.42,0,257.13,0c7.34-0.06,14.68,0.22,22-0.4c50.34,0.01,100.68,0,151.02,0.01c2.34,0.01,4.62-0.7,6.98-0.62
		c31.99,0.02,63.97-0.01,95.96,0.02c22.32-0.82,44.69-0.23,67.03-0.41c7.97-0.2,16,0.51,23.93-0.58c13.33-0.06,26.66,0,40-0.02
		c14.7,0.19,29.3701-0.7,44.08-0.4c12.96-0.28,26,0.64,38.9199-0.61c13.02,0.01,26.05,0,39.0801,0.01
		c6.98,0.2,13.9399-0.69,20.9299-0.4c11.67-0.25,23.4,0.6,35.03-0.61c12.01,0.01,24.03,0,36.05,0.02
		C1226.9137,614.4489,1241.6438,615.1389,1256.3438,614.8688z"/>
	<g>
		<path fill="#FEFEFE" stroke="#FEFEFE" stroke-width="0.0938" stroke-miterlimit="10.43" d="M2709.4038,866.8289
			c5.3298-0.02,10.6799,0,16.03-0.01c-0.02,9.32-0.04,18.64,0.02,27.97c3.6699,0.78,7.3699,1.52,11.0098,2.53
			c-0.0798-7.83,0.01-15.66-0.0498-23.49c1.8899,1.23,3.76,2.48,5.6399,3.8c-0.1099,6.41-0.1199,12.83-0.02,19.24
			c2.1401,1.56,5.1899,1.5,7.72,2.38c12.96,2.87,25.8701,7.96,39.3701,6.37c4.9399-0.96,9.3499-3.45,13.54-6.15
			c1.4299-0.93,2.5,1.12,1.3298,2.17c-12.6399,20.44-24.23,41.78-31.45,64.79c-0.7-0.64-1.49-1.21-1.51-2.2
			c-2.1299-11.28-6.3398-22.37-13.54-31.4c-5.45-6.31-11.6899-12.13-19.2898-15.73c-4.04-2.22-8.4702-3.48-12.7102-5.13
			c-0.1099,28.62-0.0398,57.25-0.02,85.88c3.6301,1.03,7.27,2.05,10.9102,3.14c0.1099-25.42,0.04-50.83,0.03-76.25
			c10.0999,4.12,20.25,10.98,24.0999,21.62c-3.3398-0.79-5.1799-3.87-7.8198-5.74c-3.3701-2.83-6.9402-5.41-10.6702-7.73
			c-0.0698,23.25-0.02,46.49-0.02,69.73c12.1401,3.52,24.27,7.36,35.6301,12.98c19.52,9.02,33.6099,28.56,36.26,49.8801
			c1.3198,11.73,0.97,23.8999-2.9202,35.1599c-7.2698,21.37-24.95,38.36-45.6499,46.8201c-12.5801,5.26-26.3699,6.4199-39.8601,5.83
			c0.05,11.84,0.04,23.6901,0.04,35.55c-5.3799-0.02-10.75,0.0499-16.0999-0.05c0-6.96-0.04-13.91,0.02-20.85
			c-23.8901-3.3-46.78-13.26-71.1602-12.64c-6.6399,0.16-13.22,1.3101-19.3799,3.8101c-1.05-1.9901-1.9299-4.04-2.78-6.0901
			c10.3101-3.47,21.3501-4.85,32.1499-3.15c20.6501,2.79,40.6301,9,61.1501,12.5c-0.02-3.6499-0.02-7.2999,0-10.9399
			c-11.53-1.4399-22.8301-4.24-34.1101-6.9c-12.8799-3.0399-25.6899-7.6799-39.0801-7.24
			c-8.9299-0.23-17.3098,3.5701-25.0098,7.6801c-0.5901-1.1801-1.1401-2.3501-1.6602-3.51
			c13.6201-21.62,25.6501-44.4401,33.98-68.66c0.78-0.02,2.3301-0.0599,3.1101-0.08c1.55,6.12,2.1099,12.51,4.6099,18.38
			c6.22,18.9399,21.4402,34.8099,40.4502,41.12c5.6599,2.27,11.74,3.02,17.71,4.12c0-27.7201,0.05-55.4301-0.02-83.15
			c-13.5701-3.66-27.22-7.0701-40.5601-11.52c-7.26-2.5699-15-5.09-20.28-11c-3.1699-3.6899-5.72-7.94-7.4299-12.48
			c2.3899,1.55,5.3999,2.34,7.45,4.43c5.1001,7.09,13.4199,10.7499,21.3901,13.65c12.9299,4.3201,26.3499,6.9401,39.48,10.5701
			c-0.04-3.5-0.04-7,0.01-10.49c-18.26-4.16-37-7.9-53.6001-16.92c-10.72-6.32-18.3-16.93-22.9399-28.29
			c-5.0901-11.62-5.8101-24.58-4.46-37.04c1.3799-11.29,5.49-22.31,12.4099-31.39c5.98-7.34,13.1199-13.84,21.51-18.33
			c14.3101-7.75,30.8699-10.87,47.04-10.52C2709.4636,884.8488,2709.4539,875.8388,2709.4038,866.8289z M2668.2336,930.0189
			c-7.0698,9.67-8.0498,22.93-3.9399,34.0099c2.52,6.23,6.8501,11.68,12.23,15.72c9.3701,7.5,20.99,11.35,32.4399,14.42
			c0.0801-22.89-0.0798-45.78,0.1001-68.67c-7.3401,0.64-14.78,3-20.3301,8c-8.6899,7.18-11.3899,19.8-8.1099,30.32
			c2.1599,6.09,6.0898,11.61,11.1499,15.64c1.96,1.88,4.98,3.01,5.8101,5.83c-0.7-0.22-2.0901-0.65-2.79-0.86
			c-7.8699-4.17-15.3899-10.06-18.79-18.56c-4.3699-10.93-2.02-24.32,5.9001-33.07c6.6199-7.96,16.78-12.62,27.1299-12.66
			c-0.0798-3.44-0.0898-6.87,0.02-10.29C2693.1938,909.1888,2677.4238,917.1488,2668.2336,930.0189z M2725.0337,1040.0889
			c-0.0601,32.72-0.02,65.45-0.01,98.1699c3.8201,0.15,7.6101-0.51,11.3801-1.1499c-0.01-27.5601,0.0698-55.1101-0.04-82.67
			c8.71,1.85,17.3401,4.74,24.8401,9.63c5.8599,3.9,11.5999,9.21,13.2598,16.3199c-2.7898-0.7999-4.3599-3.3999-6.3899-5.23
			c-7.3-7.16-16.97-10.9199-26.5801-13.83c-0.03,25.2999-0.03,50.59,0.02,75.88c6.0601-0.85,11.71-3.22,17.28-5.66
			c8.73-4.83,16.6001-11.9301,20.3501-21.37c4.3799-11.5699,3.9299-25.16-2.03-36.09
			c-4.9099-9.8201-12.8601-18.0801-22.3201-23.5801C2745.3538,1045.7788,2735.0237,1043.3088,2725.0337,1040.0889z"/>
	</g>
	<path fill="#FEFEFE" stroke="#FEFEFE" stroke-width="0.0938" stroke-miterlimit="10.43" d="M2812.2236,906.1688
		c1.52,0.72,3.0601,1.46,4.6702,2.18c-3.51,7.39-8.1501,14.19-11.74,21.55c-7.21,13.33-13.6001,27.08-19.8101,40.91
		c-1.6399-0.72-3.21-1.45-4.7-2.32C2790.8938,947.5888,2799.6738,925.8688,2812.2236,906.1688z"/>
	<path fill="#FEFEFE" stroke="#FEFEFE" stroke-width="0.0938" stroke-miterlimit="10.43" d="M2117.8037,952.8588
		c3.02-3.77,7.48-6.92,12.5601-6.22c2.3899,2.23,3.72,5.19,3.2,8.5099c-4.3401,6.59-9.77,12.34-15.1499,18.07
		c-11.7002,12.92-24.3201,24.97-35.6401,38.23c-3.6899,3.98-4.3499,9.56-5.21,14.6799c-1.7,11.9301-2.78,23.9401-3.95,35.9301
		c-0.27,3.5599-0.3201,7.25-1.46,10.66c-2.4402,2.5699-6.3901,2.73-9.7,2.7c-1.6301-1.4299-3.5-2.86-3.8201-5.14
		c-0.9299-8.4,0.46-16.83,1.6399-25.14c1.1802-10.45,4.45-21.3,1.52-31.6899c-9.48-10.35-17.35-22-26.0499-32.98
		c-5.02-6.64-12.16-11.14-18.2101-16.71c-2.5499-2.36-5.0299-5.74-3.96-9.4c2.1901-2.53,5.25-5.04,8.87-4.04
		c6.46,2.41,11.36,7.51,16.16,12.26c11.48,12.3,20.8301,26.44,32.53,38.55c0.8,0.89,2.3398,1.29,3.1199,0.06
		C2088.7236,985.0488,2104.6838,970.1989,2117.8037,952.8588z"/>
	<path fill="#FEFEFE" stroke="#FEFEFE" stroke-width="0.0938" stroke-miterlimit="10.43" d="M2213.2039,952.1588
		c5.1899-0.68,10.73-2.47,15.8198-0.24c1.9399,0.53,3,2.56,3.5701,4.37c2.21,5.14-4.0601,11.33-9.1699,9.02
		c-6.7102,0.39-13.26,1.94-19.9402,2.63c-10.9099,1.73-22.0999,0.13-32.95,2.41c-2.3899,0.39-4.5898,1.88-5.54,4.11
		c-1.6499,3.8701-1.77,8.1201-2.6699,12.1801c-1.3799,7.71-3.99,15.28-3.95,23.2c7.5999,0.02,15.1499-1.0699,22.71-1.87
		c9.46-1.09,18.6101-4.09,28.1299-4.75c3.7202-0.08,8.1101,0.14,10.8701,3.02c0.9299,3.14,0.47,7.28-2.6699,9.04
		c-4.25,2.17-9.1301,2.42-13.75,3.13c-14.4001,2.06-29.01,2.74-43.21,5.9501c-4.53,0.8999-4.7102,6.1599-5.6401,9.7799
		c-1.3401,7.91-3.04,15.86-2.9199,23.9301c0.98,4.72,6.71,4.2999,10.4299,4.14c18-2.1,35.8501-5.24,53.6899-8.35
		c3.3601,0.48,7.25,2.47,7.9202,6.1399c0.0698,2.16,0.75,5.16-1.8201,6.16c-6.71,2.88-14.1101,3.5701-21.3201,3.9501
		c-17.3,0.75-34.3499,4.23-51.5701,5.73c-3.98-0.5801-8.98,0.24-11.8999-3.01c-2.73-4.53-2.4399-10.36-0.47-15.14
		c3.7-12.95,5.1599-26.42,7.1799-39.7c1.0701-15.36,6.3201-30.31,5.3201-45.82c-1.73-3.12-3.25-6.35-3.8999-9.88
		c1.5898-3.74,6.0798-4.94,9.8098-4.37c7,1.04,14.01-0.38,21-0.83C2188.6338,955.9088,2200.9438,954.1688,2213.2039,952.1588z"/>
	<path fill="#FEFEFE" stroke="#FEFEFE" stroke-width="0.0938" stroke-miterlimit="10.43" d="M2302.0437,950.8289
		c8.25-0.16,16.8-0.7,24.6101,2.55c4.5999,1.97,9.72,4.77,11.27,9.92c0.5398,4.27-0.4102,8.75-2.7002,12.41
		c-1.73,2.58-5.0598,2.72-7.8298,2.67c-0.01-1.48-0.01-2.96,0.05-4.41c-0.7202-3.37-2.1001-6.75-5.2102-8.55
		c-12.6599-3.94-26.46-2.37-38.8599,1.8c-7.75,2.76-15.6799,6.89-19.8,14.36c-0.6799,3.7599-1.26,7.93,0.97,11.34
		c2.55,5.37,8.3,7.85,13.3701,10.26c13.77,5.61,28.6099,8.41,41.8699,15.29c4.52,2.56,9.0601,5.7,11.55,10.41
		c3.3301,5.9601,1.72,13.74-2.5701,18.8101c-8.1099,10.39-19.8,17.5699-32.0598,22.0699c-11.04,3.92-22.6602,7.16-34.4702,6.5801
		c-5.4099,0.2799-11.1799-0.5-15.7-3.66c-3.1099-2.15-2.5-6.5601-1.1199-9.53c0.8298-1.61,1.5798-4.14,3.8599-3.95
		c3.6899,0.21,7.1001,1.88,10.6899,2.6899c12.8901,2.5701,26.29-0.35,37.9702-6.02c7.1299-3.3099,14.46-7.1499,19.3198-13.5299
		c1.6101-1.9301,2.03-4.49,1.5601-6.91c-2.72-4.58-8.1699-6.17-12.78-8.0699c-15-6.09-31.3398-9.0601-45.26-17.59
		c-12.0698-6.91-15.7-24.54-7.8699-35.9c5.8398-9,15.96-13.58,25.47-17.66
		C2286.0237,953.5388,2293.9338,951.5189,2302.0437,950.8289z"/>
	<path fill="#FEFEFE" stroke="#FEFEFE" stroke-width="0.0938" stroke-miterlimit="10.43" d="M2463.9038,973.2788
		c-1.0601-7.88,6.3599-15.69,14.3499-14.5c6.22,1.13,10.74,6,15.96,9.2c26.3201,18.28,52.78,36.35,78.9802,54.79
		c-32.7302,15.78-65.4202,31.66-98.1702,47.41c-7.5898,3.76-17.75-2.65-17.6399-11.08c-0.3201-5.25,3-10.1801,7.71-12.36
		c11.5-5.7301,23.1699-11.1201,34.6899-16.8301c-41.29-3.4399-82.6199-6.6-123.95-9.65c0.8601-8.52,1.1001-17.1,2.1699-25.6
		c41.25,3.33,82.51,6.51,123.78,9.6c-10.26-7.41-20.77-14.48-31.1499-21.72
		C2467.3938,980.2589,2465.2039,976.9588,2463.9038,973.2788z"/>
	<path fill="#FEFEFE" stroke="#FEFEFE" stroke-width="0.0938" stroke-miterlimit="10.43" d="M2807.8638,1028.7588
		c3.3,0.27,5.01,3.4301,7.0901,5.6001c9.0398,9.72,14.1699,22.6,15.7,35.6899c1.22,12.75,0.1699,25.85-4.3501,37.92
		c-7.3799,19.4099-21.6599,35.96-39.1099,47.0599c-13.6201,8.84-29.8101,12.2101-45.7202,13.92c0.04,11.63,0.02,23.26,0.01,34.89
		c-7.21,0.02-14.3999-0.02-21.5898,0.02c-1.4302-1.8401-2.9202-3.6101-4.0901-5.6001c6.8601-0.11,13.72-0.0299,20.6001-0.0399
		c-0.05-11.48,0.04-22.9501-0.05-34.4301c3.52-1.0699,7.3-0.14,10.8699-1.12c11.1301-1.71,21.9402-5.47,31.9001-10.74
		c19.79-9.6801,35.25-27.46,42.55-48.22c7.02-22.2101,4.75-47.9601-8.76-67.3301
		C2811.2837,1033.7888,2808.9338,1031.6488,2807.8638,1028.7588z"/>
	<path fill="#FEFEFE" stroke="#FEFEFE" stroke-width="0.0938" stroke-miterlimit="10.43" d="M373.7037,1033.4489
		c2.02-1.05,4.34-1.29,6.59-1.23c7.71,0.09,15.44-0.3101,23.11,0.6899c5.86,2.1,12.39-0.14,18.34,1.59c9.06,1.17,18.2,2.02,27.2,3.5
		c6.95,2.3201,14.69,2.0701,21.3,5.52c2.24,0.2001,4.55,0.39,6.64,1.36c2.41,1.17,5.36,0.76,7.55,2.4801
		c7.38,1.09,13.95,4.97,21.22,6.5599c3.51,2.3101,7.51,3.76,11.31,5.55c4.42,1.0699,7.93,4.1699,12.19,5.6599
		c2.88,2.29,6.1,3.9601,9.47,5.4401c4.4,2.52,8.31,5.85,12.77,8.27c0.98,0.9299,1.91,2.0299,3.39,2.1899
		c0.25,0.6,0.52,1.2101,0.8,1.84c1.94,0.53,3.34,1.9901,4.86,3.2201c4.43,3.7799,9.27,7.4099,12.34,12.46
		c1.95,0.3199,2.78,1.98,3.47,3.66c1.75,2.39,3.37,4.89,5.49,7c4.2401,7.3199,8.7401,14.6599,11.3101,22.7899
		c1.66,3.4301,0.75,7.3301,0.97,11.01c-0.02,16.38,0.03,32.76-0.02,49.14c0.24,5.15-3.03,9.47-3.44,14.53
		c-1.95,1.6899-0.55,5.01-2.81,6.62c-1.53,3.28-2.88,6.65-3.62,10.22c-2.47,2.99-3.47,6.75-5.35,10.03
		c-0.56,1.36-1.06,2.76-1.46,4.1901c-2.25,3.0699-3.4,6.8199-5.82,9.7599c-0.7,2.3401-1.97,4.4301-3.57,6.27
		c-1.47,2.5601-2.86,5.17-4.71,7.49c-1.6,3.4701-3.66,6.6801-5.7,9.9c-2.28,4.22-4.76,8.36-7.85,12.05
		c-4.82,5.03-7.04,12.0399-12.55,16.5c-2.24,4.65-6.15,8.25-8.86,12.62c-2.18,3.12-5.06,5.86-6.74,9.27
		c-1.86,1.39-2.97,3.4199-4.13,5.37c-4,3.52-5.78,8.7899-9.62,12.47c-3.04,5.99-6.86,11.5-10.67,17c-0.32,0.21-0.98,0.62-1.31,0.83
		c-1.05,3.5601-2.81,6.9701-5.39,9.66c-1.71,5.3199-6.1,9.4399-7.14,15.02c-0.4,0.28-1.22,0.86-1.62,1.15
		c-0.49,1.2899-0.98,2.59-1.46,3.9199c-1.94,3.48-4.49,6.9-4.67,11.04c-2.26,2.6-2.53,6.62-4.81,9.4301
		c0.33,1.08,0.18,2.1299-0.47,3.1399c-1.39,4.3401-3.13,8.6101-3.78,13.16c-1.44,0.96-0.82,2.8-1.08,4.24
		c-3.9,1.6-7.31,4.3201-11.46,5.28c-6.43,2.12-12.49,5.9-19.36,6.28c0.68-2.9701,2.2-5.66,2.86-8.63
		c1.77-2.9,1.27-6.6801,2.88-9.7101c1.11-3.24,1.97-6.5599,3.4-9.6799c-0.42-3.6,2.69-6.33,2.48-9.92
		c2.65-2.63,0.99-7.08,3.66-9.8099c0.45-1.6801,0.92-3.35,1.28-5.03c2.05-3.22,2.7-7.4401,2.64-11.29l1.3,0.3201
		c-0.01-1.41,0.18-2.77,0.57-4.0901c-0.07-1.5,0.83-2.6499,1.67-3.7699c-0.17-4.26,2.24-7.9701,4.14-11.5901
		c0.51-1.22,1.14-2.34,1.76-3.47c0.85-2.12,1.43-4.3099,1.99-6.5c1.69-1.03,2.45-2.78,2.93-4.6c1.5-2.16,2.42-4.76,4.58-6.39
		c0.35-3.5601,3.11-6.0699,4.94-8.9301c1.18-2.5699,2.68-5,4.42-7.22c0.72-2.51,2.32-4.5,4.11-6.3199
		c4.78-7.04,9.39-14.1901,14.9-20.6901c2.47-3.9,6.09-7.0499,8.24-11.1799c3.74-4.3401,6.83-9.2001,9.94-13.98
		c1.4301-1.52,3.07-2.89,3.86-4.87c1.12-1.91,2.18-3.8701,3.7-5.4801c1.74-1.9299,2.06-4.6799,3.78-6.6
		c-0.08-0.15-0.25-0.4399-0.33-0.59c2.4-3.25,4.9-6.49,6.71-10.11c1.78-2.6,3.35-5.36,4.26-8.38c1.53-1.9401,2.22-4.3101,2.78-6.66
		c0.89-0.95,1.83-1.84,2.67-2.8099c1.73-2.4301,0.69-5.9501,2.91-8.0601c0.4-1.73,0.94-3.42,1.5-5.09
		c0.58-1.1901,1.13-2.37,1.7-3.54c1.81-4.6899,2.2-9.72,3.36-14.55c1.69-3.7699-0.24-8.1399,1.76-11.7899
		c1.47-2.52,1.05-5.63-0.41-8.04c-0.7599-4.14-0.46-8.33-0.6299-12.49c-1.9301-3.74-1.8-8.0599-3.56-11.8199
		c-2.9901-5.4401-4.71-11.63-8.9-16.3301c-0.77-0.7999-1.27-1.72-1.51-2.78c-1.33-1.2999-2.63-2.62-3.97-3.8799
		c-2.2-5.15-7.4-8.17-11.13-12.14c-1.12-0.4401-2.09-1.0801-2.91-1.92c-3.65-3.63-8.37-5.9-12.11-9.41
		c-4.85-2.33-9.09-5.9099-14.04-8.15c-6.98-3.0599-13.91-6.25-20.85-9.3999c-2.84-1.86-6.69-1.36-9.22-3.6901
		c-1.49-0.36-3.02-0.6899-4.2-1.71c-2.72-0.52-5.42-1.15-7.85-2.51c-3.07-0.51-6.03-1.42-8.84-2.74c-1.69-0.15-3.37-0.46-4.88-1.22
		c-3.01-1.52-6.55-0.87-9.68-1.91c-3.71-2.01-8.13-1.15-12.05-2.48c-5.52-1.8201-11.37-0.6901-17.02-1.42
		c-5.62-0.75-11.29-0.23-16.94-0.39c-4.38,0.04-8.79-0.21-13.14,0.4301c-5.61,0.84-11.55-0.79-16.92,1.53
		c-4.8,0.46-9.65,0.74-14.39,1.5199c-4.39,2.14-9.4,1.65-14.01,2.9701c-5.04,1.33-10.25,2.0299-15.04,4.24
		c-0.3-0.01-0.88-0.02-1.17-0.03c-5.67,1.91-11.05,4.54-16.84,6.12c-6.16,2.47-12.28,5-18.22,7.96c-1.27,0.52-2.23,1.49-3.03,2.5901
		c-3.81-0.3301-6.09,3.12-9.47,4.0299c-2.07,1.26-3.99,2.7301-5.89,4.2301c-2.05,2.59-5.57,3.0699-7.6,5.58
		c-2.55,1.14-4.53,3.14-6.47,5.09c-3.92,1.4501-6.06,5.3101-9.17,7.89c-2.96,3.8199-4.98,8.4401-8.93,11.39
		c-1.25,3.88-4.14,6.99-5.1,10.98c-2.04,6.49-5.71,12.78-5.15,19.79c-2.54,7.23-0.93,15.2899,0.29,22.7
		c0.78,3.0701,0.52,6.35,1.64,9.35c1.04,2.16,1.34,4.5801,1.76,6.9301c2.15,4.36,3.58,9.12,4.85,13.83c1.61,1.25,1.89,3.29,2.5,5.11
		c1.91,2.27,2.51,5.37,4.09,7.9c2.64,3.9,4.65,8.1801,7.02,12.26c1.17,1.6901,2.14,3.52,3.51,5.09c0.41,1.01,0.82,2.03,1.23,3.0701
		c1.05,1.1699,1.99,2.45,2.51,3.97c0.74,0.84,1.48,1.7,2.22,2.58c0.75,3,4.08,4.29,5.46,6.9601c1.14,2.11,2.41,4.15,3.76,6.15
		c1.65,1.5,2.75,3.5099,4.24,5.1799c1.72,1.65,2.52,4.02,4.32,5.62c2.26,2.21,4.57,4.4401,5.87,7.39
		c0.73,0.8199,1.32,1.74,1.86,2.74c3.07,3.0601,4.99,7.0701,8.32,9.9301c1.99,3.08,5.04,5.6599,5.69,9.4399
		c0.36,0.4,1.07,1.22,1.43,1.62c1.65,4.14,5.17,7.29,6.6,11.6c0.42,0.3201,1.25,0.9501,1.67,1.27c0.72,2.01,1.35,4.11,2.61,5.88
		c2.14,4.25,4.86,8.3,5.76,13.0601c1.87,1.9399,1.42,5.02,3.31,7.02c1.28,3.1599,3.31,6.24,3.39,9.74
		c1.65,1.73,1.78,4.2699,2.19,6.5199c0.37,0.41,1.11,1.25,1.49,1.67c0.55,2.99,0.61,6.1801,2.01,8.96
		c0.62,3.04,1.17,6.1001,1.74,9.17c4.62,3.16,4.58,9.25,4.79,14.26c3.59,3.4-0.14,9.53,2.84,12.8101
		c-0.24,7.6299,0.63,15.21,0.37,22.85c-0.08,2.26,0.02,4.5699,0.69,6.77c-1.13-0.4601-2.25-0.92-3.35-1.41
		c-3.92-0.86-8.57-0.3201-11.79-2.99c-1.65-0.14-3.29-0.37-4.83-0.97c-4.21-1.3301-8.67-2.2001-12.44-4.5901
		c-0.97-2.1-0.24-4.76-1.7-6.73c-0.46-3.61-1.83-7.0699-1.76-10.74c-1.48-2.1801-2-4.76-2.64-7.24c-1.21-3.58-2.79-7.04-3.6-10.72
		c-1.16-5.02-4.85-9.16-5.06-14.38c-0.35-0.1801-1.06-0.54-1.41-0.7201c-0.5-4.0599-3.32-7.22-4.96-10.8199
		c-0.46-2.17-1.52-4.1-2.56-6.01c-1.28-1.5699-2.03-3.4399-2.83-5.25c-0.83-1.63-1.98-3.13-2.29-4.96c-0.3-0.3-0.89-0.9-1.19-1.2001
		c-0.69-1.88-1.37-3.84-2.76-5.3199c-2.18-2.01-2.3-5.24-4.29-7.37c-0.13-0.37-0.41-1.09-0.54-1.46
		c-1.29-1.2301-2.4-2.5801-3.49-3.9501c-0.53-1.16-1.05-2.2999-1.58-3.4199c-4.1-5.8501-8.75-11.3101-12.7-17.29
		c-1.25-2.05-2.95-3.76-4.77-5.28c-0.15-0.49-0.44-1.46-0.59-1.9399c-3.33-2.54-4.98-6.64-8.29-9.16c-0.64-1.04-1.27-2.03-1.9-3.03
		c-0.62-0.78-1.21-1.5499-1.8-2.3099c-1.53-2.42-3.05-4.8501-5.03-6.9301c-1.39-1.59-2.63-3.29-3.91-4.9399
		c-2.54-3.4701-5.33-6.8101-7.06-10.8c-3.47-1.54-2.95-5.8199-5.51-7.9301c-1.01-1.0199-1.75-2.23-2.34-3.5
		c-1.67-2.13-3.1-4.4399-4.13-6.9399c-1.13-1.47-2.11-3.03-3.27-4.4401c-1.12-4.1399-3.36-8.1599-6.28-11.2799
		c-1.04-2.41-1.78-4.9501-1.79-7.5701c-0.26-0.02-0.77-0.0499-1.02-0.0599c-0.64-2.3401-1.95-4.4-2.68-6.6801
		c-0.2-0.6-0.6-1.8099-0.81-2.4199c-0.3-0.2301-0.91-0.7001-1.22-0.9301c-0.24-3.64-2.22-6.77-3.4-10.13
		c-1.64-3.04-1.12-6.78-3.05-9.71c-0.63-6.98-2.78-13.7101-2.97-20.7101c-0.56-6.35,0.05-12.6899,0.35-19.0199
		c2.05-4.2401,1.63-9.2001,2.61-13.7401c1.89-3.36,2.16-7.3799,4.36-10.6299c1.45-4.3501,5.17-7.51,6.19-11.9901
		c0.97-3.21,3.95-5.12,5.49-7.98c1.81-2.6,3.33-5.47,5.73-7.58c4.25-3.9401,8.03-8.38,12.54-12.03c1.8-0.9399,3.29-2.36,5.16-3.1799
		c0.88-1.1901,2-2.15,3.24-2.9301c0.27-0.36,0.81-1.0699,1.08-1.4301c2.34-0.3799,3.77-2.34,5.28-3.95
		c2.42-0.53,3.9-2.5699,5.6-4.17c1.93-0.6699,4.12-1.13,5.37-2.8999c2.71-1.65,5.31-3.49,8.02-5.13
		c3.76-1.5601,7.74-3.0701,10.71-5.9301c2.46-0.52,4.56-1.92,6.8-2.98c4.23-1.67,8.29-3.8199,12.68-5.15c0.3-0.34,0.91-1,1.22-1.33
		c1.72-0.4301,3.46-0.84,5.22-1.13c4.98-3.36,11.54-3,16.71-6.01c1.77-0.91,3.8-1.04,5.74-1.4c2.27-1.52,5.17-1.04,7.56-2.25
		c3.46-1.88,7.68-0.8199,11.09-2.8099c4.16-1.5701,8.76-0.5701,12.77-2.5801c7.85-0.86,15.58-2.36,23.44-3.11
		C360.5638,1033.2988,367.1837,1034.2289,373.7037,1033.4489z"/>
	<path fill="#FEFEFE" stroke="#FEFEFE" stroke-width="0.0938" stroke-miterlimit="10.43" d="M2660.4138,1082.0088
		c1.7998-0.39,3.6299-0.8999,5.4299-1.49c2.02,8.62,4.03,17.4601,8.79,25.0601c5.8699,9.91,15.3699,16.96,25.04,22.87
		c1.0999,0.51,1.71,1.4199,1.8398,2.74c-8.77-1.4-16.3-6.88-22.73-12.6901
		C2668.5938,1108.9789,2662.1338,1095.7988,2660.4138,1082.0088z"/>
	<path fill="#FEFEFE" stroke="#FEFEFE" stroke-width="0.0938" stroke-miterlimit="10.43" d="M2000.5737,1151.1288
		c3.87-0.7799,7.72-1.62,11.64-2.1799c-10.92,34.08-21.8,68.1699-32.83,102.22c-1.76,6.4301-8.3201,10.9301-14.9501,10.05
		c-6.27-1.8501-11.46-8.16-10.3099-14.8401c4.2-13.1699,8.2-26.3999,12.75-39.45c-23.73,20.75-46.9701,42.13-70.51,63.11
		c-3.4,2.9301-6.6,6.0701-9.99,9c-16.36,14.64-32.66,29.36-49.01,44.01c-3.4,2.92-6.61,6.0601-9.99,8.99
		c-4.9,4.48-9.9701,8.79-14.78,13.38c-1.05,0.78-1.99,1.85-3.24,2.25c-5.2001-6.4299-11.23-12.17-16.26-18.7
		c5.8099-6.3,12.75-11.53,18.91-17.51c11.71-10.4501,23.39-20.9401,35.0599-31.4501c3.39-2.9299,6.59-6.0699,10-8.99
		c3.38-2.9399,6.59-6.08,10-9c3.39-2.9399,6.6-6.08,10.01-9.01c24-21.38,47.7001-43.11,71.8201-64.35
		c0.08-0.24,0.24-0.72,0.3199-0.96c-4.7,1.4299-9.5601,2.15-14.33,3.23c-1.7001,0.33-3.37,0.65-5.01,1
		c-1.7101,0.33-3.38,0.65-5.04,0.99c-5.87,1.21-11.73,3.03-17.76,2.99c-4.26-0.03-7.3199-3.22-9.9-6.1899
		c-0.6-1.91-1.34-3.77-1.74-5.7101c0.29-4.21,1.9301-8.6699,5.65-11.0299c4.28-2.64,9.4301-3.05,14.24-4.1101
		c20.41-4.2699,40.83-8.47,61.24-12.73C1984.5737,1154.5188,1992.5737,1152.8188,2000.5737,1151.1288z"/>
	<path fill="#FEFEFE" stroke="#FEFEFE" stroke-width="0.0938" stroke-miterlimit="10.43" d="M423.8837,1212.5688
		c0.18,0.33,0.55,1,0.73,1.33l0.08-1.11c5.5-0.74,11.16-1,16.65,0.0701c2.67,1.4099,5.85,1.2599,8.72,2.08
		c2.61,2.25,6.63,2.22,8.95,5.09c3.68,0.16,5.78,3.41,8.95,4.8c3.03,1.21,4.68,4.26,7.52,5.7899c1.8,3.29,5.28,5.5,7.69,8.4401
		c3.02,2.14,3.54,6.11,6.1,8.64c0.68,1.65,1.45,3.28,2.12,4.95c-0.72,0.2101-2.17,0.61-2.89,0.8201
		c-0.24,0.38-0.71,1.1499-0.95,1.5399c-2.83,0.5601-4.21,3.6001-7.02,4.0801c0.09,0.2899,0.26,0.86,0.35,1.15
		c-3.53,1.0499-6.21,4.22-8.91,6.6599c-1.54-3.73-3.44-7.61-6.63-10.1699c-0.91-2.89-2.82-5.27-4.27-7.87
		c-0.44-1.17-1.62-1.62-2.73-1.8101c-0.21-0.55-0.62-1.65-0.83-2.2c-3.3-3.0601-6.35-6.38-9.59-9.49
		c-5.74-3.4401-11.75-8.13-18.85-7.01c-3.21,1.63-6.37,3.3999-9.52,5.1499c-2.05,1.8501-3.91,3.9401-6.26,5.42
		c-1.76,1.29-3.23,3.02-5.38,3.6801c-0.8,0.6899-1.61,1.39-2.43,2.08c-0.26,0.4-0.77,1.2-1.03,1.6c-3.2,1.2101-5.45,3.88-7.64,6.39
		c-0.35-0.13-1.06-0.38-1.42-0.51l0.09,1.15c-2.56,1.3-4.75,3.22-7.34,4.4399c-0.89,0.4701-2.76,0.8501-1.73,2.4401
		c-4.2,1.13-7.31,4.6799-11.52,5.78c-4.6,3.1499-9.94,4.8099-14.99,7.08c-0.31-0.14-0.94-0.42-1.25-0.5599l0.04,0.71
		c-4.35,1.2-8.84,1.36-13.32,1.46c-0.29,0.29-0.87,0.86-1.16,1.14c-1.74,0.03-3.47,0.02-5.19,0.01c-0.72-0.92-1.64-1.35-2.74-1.28
		c-3.83,0.11-7.52-0.98-11.3-1.36c-2.7-1.95-6.04-2.6899-9-4.13c-1.88-1.04-3.8-2-5.66-3.04c-1.51-1.48-3.32-2.58-5.06-3.72
		c-1-0.84-1.86-2.38-3.45-1.88c0.7-1.7999-1.46-2.5399-2.27-3.75c-1.08-0.76-2.01-1.73-2.83-2.74
		c-0.39-0.11-1.17-0.3199-1.56-0.4299c-1.46-2.29-2.19-5.0701-4.3-6.87c-0.07-0.38-0.21-1.15-0.28-1.53
		c-1.82-1.61-3.27-3.8101-3.75-6.1801c1.54-2.0699,4.45-2.36,6.62-3.58c5.68-2.0701,10.66-5.5701,16.2-7.9301
		c0.7-0.5499,1.4-1.09,2.09-1.64c0.53,6.41,4.48,11.66,7.12,17.3201c1.17,1.76,3.01,2.95,4.6,4.3199
		c-0.01,0.4401-0.05,1.3201-0.06,1.76c0.45,0.04,1.35,0.11,1.8,0.15c0.29,1.53,1.13,2.39,2.53,2.58c0.01,0.26,0.03,0.77,0.04,1.03
		c2,1.16,3.72,2.76,5.85,3.74c6.09,2.42,12.73,1.65,18.99,0.47c2.17-1.9399,4.83-3.1699,7.46-4.33c0-0.28-0.01-0.84-0.01-1.13
		c0.55-0.02,1.65-0.0699,2.2-0.1c1.36-1.25,2.85-2.34,4.5-3.16c1.16-1.25,2.56-2.25,4.14-2.87c1.9-1.86,3.76-3.76,5.73-5.5399
		c2.09-0.41,3.25-2.3501,4.86-3.54c3.82-3.6,8.64-6.01,12.14-9.9401c1.42-0.5699,2.85-1.11,4.32-1.5499
		c-0.1-0.27-0.3-0.8201-0.41-1.0901c3.59-0.37,5.86-3.4299,8.97-4.87c2.74-1.1399,5.1-3.0499,8.22-3.36
		c1.39-0.87,2.98-1.2899,4.52-1.7799C420.8138,1213.5789,422.9937,1214.4188,423.8837,1212.5688z"/>
	<g>
		<path fill="#FEFEFE" stroke="#FEFEFE" stroke-width="0.0938" stroke-miterlimit="10.43" d="M1173.1737,1268.3289
			c10.5901-0.63,21.52-1.66,31.8501,1.41c12.3999,3.37,23.46,12.8999,27.0599,25.46c3.3,10.87,2.66,23.01-2.22,33.3199
			c-7.48,15.39-21.79,26.14-36.9401,33.28c-9.48,4.34-19.52,7.1901-29.58,9.79c-5.36,1.48-10.8101,3.0699-15.4301,6.27
			c-3.0299,2.09-6.8099,3.63-10.5199,2.7599c-2.3101-1.36-3.6901-3.71-5.15-5.84c0.03-3.62,2.48-6.53,3.2999-9.95
			c0.88-3.87,1.49-7.84,1.4501-11.8101c1.1-17.7899,3.2-35.51,5.6599-53.1599c0.65-4.9901,2.13-9.9401,1.7001-15.01
			c-0.97-4.17-6.65-2.9701-8.8101-6.14c-1.11-4.02,1.9801-8.39,5.8-9.42
			C1151.9537,1269.1388,1162.6038,1269.4789,1173.1737,1268.3289z M1158.1537,1280.3289c-3.0699,17.26-5.49,34.63-7.48,52.0399
			c-0.72,9.91-2.24,19.9901-0.5399,29.8701c1.84-0.03,3.6899-0.03,5.5599-0.02c7.55-1.8,15.0601-3.8201,22.4301-6.28
			c15.96-5.29,31.58-15.03,39.4-30.42c3.75-7.5499,4.84-16.4,3.3199-24.6599c-2.04-10.3201-10.8101-18.26-20.74-20.9301
			C1186.3438,1276.0588,1172.0737,1279.6288,1158.1537,1280.3289z"/>
	</g>
	<g>
		<path fill="#FEFEFE" stroke="#FEFEFE" stroke-width="0.0938" stroke-miterlimit="10.43" d="M1293.0938,1270.8688
			c8.97-4.2599,19.21-4.2799,28.88-3.0399c11,1.72,21.03,7.95,28.13,16.45c1.35,1.76,2.1899,3.84,3.1799,5.84
			c2.39,8.27,2.29,17.15,0.9401,25.5901c-2.6801,10.24-7.1901,20.0399-13.61,28.48c-7.38,9.4399-16.02,18-25.8101,24.92
			c-0.52,0.12-1.5499,0.36-2.0599,0.48c-2.1,3.01-5.9501,4.11-9.14,5.63c-9.34,3.8099-19.6,4.62-29.58,4.0399
			c-6.2101-1.25-11.9-4.7999-15.8201-9.75c-5.66-6.5299-10.03-14.72-10.33-23.49c-0.74-12.46,3.49-24.58,8.6599-35.73
			C1264.4337,1294.0088,1276.3938,1278.6888,1293.0938,1270.8688z M1296.0637,1282.0088c-10.63,6.41-17.9399,16.8201-24.48,27.1001
			c-4.45,7.6699-7.91,16.0199-9.5,24.7699c-0.77,6.6101-1.47,13.7201,1.48,19.9301c2.8101,6.09,8.3201,10.96,14.8201,12.76
			c14.14,1.6899,28.21-4.3201,38.5-13.8c12.86-11.46,23.0599-27.14,24.4399-44.65c0.35-6.99,0.1801-14.7999-4.71-20.34
			c-6.23-6.5399-15.49-9.52-24.3301-9.9299C1306.5938,1277.3688,1300.8638,1278.9589,1296.0637,1282.0088z"/>
	</g>
	<path fill="#FEFEFE" stroke="#FEFEFE" stroke-width="0.0938" stroke-miterlimit="10.43" d="M1437.6338,1268.1488
		c6.39-0.87,12.99-3.02,19.33-0.64c2.37,1.99,2.6801,5.2001,2.54,8.0901c-1.49,1.71-3.24,3.1699-5.17,4.35
		c-1.96-0.96-4.0699-0.47-6.1-0.23c-7.72,0.4099-15.3201,2.01-23.03,2.5499c-7.29-0.12-14.61-0.01-21.8,1.26
		c-3.9199,0.88-5.98,4.8301-6.3099,8.55c-1.08,9.13-4.51,17.89-4.73,27.13c12.76,0.13,25.4399-2.11,37.87-4.8401
		c5.23-0.7999,10.89-1.9199,15.88,0.5c2.98,1.42,2.24,5.6101,0.89,8c-1.98,2.3201-5.14,2.9-7.98,3.4301
		c-14.4401,2.48-29.17,3.01-43.52,6.09c-1.61,0.5601-4.01,0.8501-4.41,2.8501c-2.7,8.85-3.4401,18.1599-4.53,27.2999
		c1.1801,4.97,6.79,4.47,10.78,4.23c15.86-1.84,31.5599-4.8199,47.3099-7.37c2.4501,0.61,5.16,1.5801,6.38,4.02
		c0.65,1.84,0.3101,3.87,0.5,5.8101c-6.0599,4.38-14.0299,4.2699-21.1699,4.86c-15.13,0.77-30.04,3.64-45.09,5.13
		c-3.7301-0.49-8.05,0.33-11.2101-2.0701c-2.3199-3.0599-2.46-7.2999-1.95-10.96c4.14-12.77,5.5599-26.23,7.46-39.47
		c1.17-13.87,5.5701-27.4301,4.83-41.4601c-2.0299-2.62-3.3099-5.88-3.1299-9.22c2.62-4.76,8.75-3.11,13.1699-2.86
		C1408.8938,1272.0688,1423.3337,1270.5688,1437.6338,1268.1488z"/>
	<path fill="#FEFEFE" stroke="#FEFEFE" stroke-width="0.0938" stroke-miterlimit="10.43" d="M1489.7538,1276.6588
		c11.73-6.36,25-10.4399,38.4399-9.95c8.1801-0.41,17.14,1.2899,23.23,7.1599c4.05,4,2.91,10.4401,0.5801,15.04
		c-1.48,2.73-4.8201,2.9301-7.55,3.02c0.42-4.61-1.02-10.55-6.01-12.01c-8.16-2.62-17-1.8099-25.3099-0.42
		c-8,1.78-16.0801,4.6901-22.29,10.1901c-4.4301,3.71-5.9,10.66-2.76,15.63c2.5601,4.8099,7.9,6.95,12.5699,9.1799
		c12.6101,5.1901,26.4301,7.4501,38.28,14.4801c5.26,3.1699,10.5901,8.4299,10.14,15.0599c0.23,5.74-3.42,10.7001-7.45,14.41
		c-7.9301,8.6-18.64,14.04-29.64,17.6c-8.0701,2.3199-16.3101,4.79-24.8,4.29c-6.08,0.3199-13.0699-0.29-17.34-5.1801
		c-0.46-3.85,0.8199-7.51,3.12-10.5599c4.58-0.0701,8.7,2.3199,13.22,2.7999c12.39,1.8201,24.8301-2,35.64-7.89
		c4.76-2.7,9.6901-5.51,13.03-9.97c1.52-1.74,1.45-4.1899,1.6899-6.33c-1.4399-2.0801-3.37-3.75-5.6899-4.72
		c-12.1801-5.7201-25.49-8.4501-37.77-13.91c-6.08-2.9-12.97-5.9401-16.1-12.3101c-3.13-5.13-3.79-11.3099-2.77-17.13
		C1476.0138,1286.8688,1482.6937,1280.7389,1489.7538,1276.6588z"/>
	<path fill="#FEFEFE" stroke="#FEFEFE" stroke-width="0.0938" stroke-miterlimit="10.43" d="M1649.6438,1267.4889
		c4.3999-2.8,8.2699,2.34,8.37,6.4299c0.1499,6.54-2.4801,12.74-3.63,19.12c-3.5801,12.33-4.5801,25.15-6.4301,37.8
		c-1.38,7.6899-0.88,15.51-0.95,23.2799c-0.05,4.6901,1.11,9.3,1.0299,14.01c0.16,5.3401-6.86,10.04-11.3999,6.5801
		c-2.37-2.37-2.38-6.03-3.05-9.1c-1.48-21.0601,3.95-41.7001,5.88-62.55c1.49-9.5601,3.49-19.04,4.62-28.65
		C1644.1637,1271.0789,1646.9637,1268.9288,1649.6438,1267.4889z"/>
	<path fill="#FEFEFE" stroke="#FEFEFE" stroke-width="0.0938" stroke-miterlimit="10.43" d="M1745.6438,1270.4589
		c10.37-1.2001,20.96-2.17,31.2799-0.05c4.15,1.24,5.37,7.17,3.1001,10.5c-3.26,2.1-7.27,0.1801-10.8201,0.28
		c-6.7,0.05-13.4-0.1-20.09,0.1c-6.12,1.13-12.6801,0.4501-18.48,3.08c-2.2301,1.39-2.0601,4.39-2.5601,6.6801
		c-1.73,13.67-3.5499,27.37-4.0699,41.14l-0.63,1.0699c-0.13,11.6801-1.6801,23.65,1.64,35.05c-0.5601,3.03-1.79,5.86-4.16,7.92
		c-4.02,0.75-7.96-1.74-9.03-5.64c-2.14-8.01-1.1799-16.38-1.41-24.5801c0.3401-8.39,1.63-16.73,2.05-25.12l0.5601-1.1499
		c0.34-10.66,2.96-21.1201,3.4299-31.75c0.34-1.9701-1.78-2.39-3.21-2.1901c-9.73-0.17-19.37,1.4401-29.05,2.03
		c-5.09-0.17-10.59,0.86-15.09-2.14c-0.7001-2.87-1.63-6.61,1.35-8.54c5.25-2.3099,11.16-0.58,16.64-1.86
		C1706.7338,1275.7688,1726.2238,1273.0989,1745.6438,1270.4589z"/>
	<path fill="#FEFEFE" stroke="#FEFEFE" stroke-width="0.0938" stroke-miterlimit="10.43" d="M431.1737,1292.7289
		c0.87-2.2301,1.63-4.52,3.01-6.4801c5.59,2.7401,12.21,2.91,17.56,6.13c-0.77,1.75-1.31,3.7001-2.79,5.02
		c-0.51,1.87-0.95,3.77-1.69,5.5801l0.37,0.45c-1.27,0.98-1.94,2.42-2.54,3.87c-0.8,1.46-1.58,3-1.69,4.71
		c-0.31,3.0801-2.23,5.66-3.39,8.4701c-0.89,3.74-2.34,7.3199-3.9,10.8199c-1.31,6.1-3.08,12.0601-5.59,17.78
		c-0.8,7.76-4.45,14.8199-5.74,22.48c-1.18,5.6-1.77,11.41-4.15,16.73c0.29,2.84,0.37,5.85-1.08,8.4501
		c-2.01,3.74-0.62,8.1799-2.01,12.1399c-1.63,1.91-0.61,4.5601-0.74,6.8501c-2.06,3.83-0.32,8.37-2.32,12.23
		c0.18,0.37,0.53,1.11,0.71,1.48c-2.88,7.14-0.59,15.28-3.33,22.49c8.03-0.47,16.32-1.2,23.85-4.26c6.07-0.47,11.63-3.11,17.6-4.05
		c2.29-1.4399,5.46-1.0099,7.34-3.08c1.72-0.42,3.55-0.74,4.84-2.0699c2.47-0.52,4.87-1.28,7.33-1.8
		c0.55-3.54,3.65-5.96,3.71-9.6799c0.31-0.28,0.93-0.8401,1.24-1.1201c0.59-2.86,2.83-4.9099,3.76-7.6299
		c3.33,1.11,6.99,2.1699,9.46,4.84c1.08,0.2999,2.17,0.62,3.27,0.9399c2.04,2.7201,5.66,3.7101,7.51,6.5901
		c0.84,1.2799,1.99,2.2899,3.22,3.23l-0.66,0.52c1.44,0.63,2.24,1.99,3.24,3.1499c1.07,3.76,0.89,7.7001-0.12,11.4601
		c-1.04,1.6499-1.92,3.45-3.39,4.7999c-1.69,1.99-3.91,3.49-5.4,5.6801c-1.48,0.58-2.84,1.41-4.03,2.47
		c-2.87,0.96-5.46,2.5-7.81,4.38c-3.66,1.7-7.9,2.3199-11.19,4.72c-5.58,1.51-10.95,3.5701-16.78,4.0801
		c-3.53,1.86-7.43,2.3099-11.35,2.48c-3.5,1.83-7.66,1.6699-11.5,2.33c-0.46,0.3101-1.37,0.9301-1.83,1.24
		c-4.01,0.29-8.47-0.45-12.16,1.28c-18.21,1.8-36.55,1.45-54.85,1.37c-6.72-0.73-13.53-0.4399-20.16-1.79
		c-3.98-1.12-8.28-0.22-12.25-1.46c-4.22-1.28-8.72-1.1801-12.91-2.54c-2.01-1.4199-4.67-0.25-6.81-1.33
		c-6.91-2.72-14.71-2.65-21.31-6.11c-3.04-0.66-5.57-2.5701-8.6-3.24c-2.93-0.65-4.71-3.3201-7.4-4.39
		c-2.12-0.97-3.99-2.4301-6.23-3.08c-1.89-3.01-5.35-4.7001-7.32-7.66c-1.07-3.01-3.27-5.76-2.8-9.11
		c-0.46-2.86,1.19-5.2101,2.04-7.77c0.52-0.85,1.04-1.6901,1.57-2.5c2.78-1.88,5.07-4.36,7.21-6.91
		c0.47-0.0499,1.41-0.14,1.87-0.1899c3.28-2.42,6.79-4.98,10.99-5.3101c1.99,0.92,1.58,3.42,2.14,5.2001
		c1.49,2.85,1.58,6.1799,3,9.08c2.13,0.28,3.9,1.53,5.77,2.49c1.56,0.8101,3.49,0.97,4.73,2.37c2.07,0.49,4.24,0.9401,6.01,2.23
		c4.78,0.7101,9.2,2.79,13.59,4.74c5.43,0.9,10.51,3.2101,16.09,3.4601c3.14,1.99,7.13,1.1,10.61,2.11
		c-0.54-3.3201-1.33-6.67-1.04-10.03l-1.26-0.29c0.39-0.4299,1.17-1.3099,1.56-1.75c-0.39-0.4199-1.16-1.27-1.55-1.7l1.82-0.5
		c-0.42-0.3201-1.27-0.96-1.7-1.28c0.31-0.37,0.94-1.1,1.25-1.46c-0.83-4.99-1.36-9.98-1.13-15.05c-1.42-5.22-0.13-10.64-1.58-15.87
		c-1.29-3.4199-0.05-7.12-0.93-10.61c-0.9-3.98,0.4-8.42-1.98-12.02c0.09-4.23-0.44-8.4199-0.49-12.63
		c0.05-1.0699-0.22-2.0399-0.81-2.9c0-3.5099-0.76-6.95-1.54-10.35c0.87-4.77-1.61-9.11-2.1-13.76c0.31-4.46-1.37-8.75-1.18-13.1899
		c-2.04-2.8101-1.13-6.38-1.97-9.54c-1.18-3.54-1.34-7.29-2.22-10.9c6.68-4.5,14.43-7.4199,21.57-11.22
		c0.59-0.22,1.78-0.67,2.38-0.89c0.45,0.4501,1.36,1.37,1.82,1.8201c-0.29,4.85-0.72,10.0499,1.39,14.58
		c-0.17,0.35-0.51,1.0699-0.67,1.4301c0.16,2.11,0.32,4.25,0.3,6.38c1.85,3.97,0.73,8.4199,1.36,12.63
		c-0.44,5.7799,2,11.2899,1.73,17.0599c-0.18,5.28,0.93,10.51,0.53,15.8199c0.56,3.66,0.12,7.4401,1.07,11.05
		c0.58,2.01,0.34,4.13,0.15,6.2c0.07,2.2101-0.27,4.4901,0.31,6.6801c1.29,4.9,0.4,10.02,0.59,15.03
		c-0.16,5.12,1.12,10.1799,0.52,15.3099c0.25,5-0.07,10.03,0.28,15.04c0.06,1.6899,1.34,3.42,0.39,5.08
		c0.19,0.16,0.58,0.4801,0.77,0.64c-0.85,1.0601-0.8,2.17,0.01,3.26c-0.2,0.16-0.61,0.48-0.81,0.64c0.68,0.89,0.67,1.8101-0.08,2.7
		c0.42,1.13,0.35,2.25-0.2,3.3601c0.33,0.1399,1,0.4299,1.33,0.5699c-0.41,0.3101-1.23,0.9301-1.64,1.25
		c0.57,0.51,1.15,1.03,1.73,1.5699c9.57-0.1,19.13,0.0901,28.7-0.1c0.07-1.23,0.41-2.37,1.01-3.4299
		c0.28-3.1001,0.45-6.2101,0.9-9.28c0.25-2.63,1.56-4.99,1.88-7.59c0.43-3.4501,0.15-7.02,1.51-10.29
		c1.17-2.55,0.96-5.3199,1.23-8.01c1.2-2.97,1.5-6.1801,2.55-9.1801c-0.26-1.6899,0.01-3.3999,1.1-4.74
		c0.41-2.8899,1.11-5.73,1.34-8.63c0.21-1.5299,0-3.13,0.48-4.5699c2.73-5.14,2.14-11.24,4.07-16.64c1.43-3.67,0.82-8.03,3.29-11.27
		c0.27-3.34,1.16-6.58,1.4-9.9099c2.11-3.03,1.56-6.9601,3.04-10.0901c-0.01-0.22-0.03-0.6599-0.04-0.87
		c1.11-2.84,1.61-5.85,2.59-8.71c0.26-2.21,0.74-4.38,1.61-6.42c0.48-2.02,1.02-4.02,1.65-5.98c3.32-5.5699,2.79-12.6899,6.27-18.25
		C429.8537,1297.7089,430.4237,1295.1888,431.1737,1292.7289z"/>
	<path fill="#FEFEFE" stroke="#FEFEFE" stroke-width="0.0938" stroke-miterlimit="10.43" d="M1811.3037,1397.0288
		c6.05-6,12.0901-12.03,18.0801-18.1c5.6499,5.3,11,10.9,16.49,16.36c14.62,13.73,28.52,28.22,42.7799,42.34
		c12.54,11.4,24.14,23.8101,36.2401,35.7001c5.49,5.85,11.6699,10.97,17.23,16.75c10.6699,10.6699,21.34,21.33,32,32
		c7.15,6.16,13.5,13.1699,20.27,19.75c7.47,7.5399,15.0699,14.95,22.46,22.5699c-3.6-12.76-6.86-25.59-10.4301-38.35
		c-1.4299-4.0599,0.14-8.61,2.77-11.8c1.71-2.35,4.64-3.13,7.0601-4.5099c1.6-0.05,3.22-0.04,4.88,0.0299
		c4.4199,1.2001,8.2,4.42,9.7899,8.78c1.7101,5.08,2.8,10.36,4.3,15.52c7.9299,29.3199,15.86,58.64,23.7599,87.97
		c1.4102,2.96-2.48,1.1801-3.6899,1.05c-30.62-8-61.2999-15.75-91.95-23.62c-5.48-1.5701-12.04-1.98-15.8199-6.8
		c-1.9401-2.7-3.76-6.11-2.91-9.51c0.58-5.72,5.6-9.66,10.6899-11.4399c1.51-0.02,3.0701,0.0399,4.63,0.25
		c12.9601,3.49,25.9601,6.8099,38.99,10.0299c-17.51-16.0699-33.49-33.75-50.97-49.83c-9.46-9.49-18.95-18.96-28.42-28.4299
		c-14.86-14.17-29.2699-28.8101-43.7799-43.3301c-14.75-13.49-28.36-28.1899-42.74-42.0699
		C1825.4537,1411.5688,1818.6238,1404.0388,1811.3037,1397.0288z"/>
	<path fill="#FEFEFE" stroke="#FEFEFE" stroke-width="0.0938" stroke-miterlimit="10.43" d="M922.9838,1389.8688
		c2.98-6.74,12.06-10.1699,18.41-6c31.33,17.9801,62.35,36.52,93.7501,54.39c-28.67,17.3401-57.9001,33.8201-86.7601,50.86
		c-4.27,2.13-8.13,5.8501-13.16,5.77c-6.13,0.4601-11.61-4.5699-13.14-10.26c-0.63-5.5199,2.13-10.96,6.9-13.7999
		c11.25-6.4501,22.36-13.15,33.65-19.52c-78.57,0.12-157.15,0.0699-235.72,0.02c-0.1-8.5601,0.01-17.11-0.07-25.66
		c78.6,0.11,157.19-0.12,235.78,0.11c-10.2599-6.0699-20.6-12.01-30.88-18.0399c-3.3799-1.91-6.91-4.1801-8.4399-7.91
		C922.0137,1396.7289,921.2437,1392.9689,922.9838,1389.8688z"/>
	<path fill="#FEFEFE" stroke="#FEFEFE" stroke-width="0.0938" stroke-miterlimit="10.43" d="M1639.0337,1452.8188
		c5.8-5.39,12.8501-10.7001,21.17-10.61c4.35,0.0599,8.73-0.16,13.1,0.12c6.67,1.27,11.9501,6.14,15.9,11.41
		c2.74,5.3099,2.3201,11.46,2.3201,17.2699c0.1399,6.24-1.4801,12.8201-5.66,17.62c-4.89,6.52-12.8101,9.54-20.26,12.1101
		c-4.64,1.73-9.34,3.2599-14.05,4.75c-2,5.1599-3.1899,10.58-4.95,15.8199c-1.47,3.96-6.26,4.3099-9.85,4.08
		c-1.86-5.85-0.8-12.11,1.9099-17.5c1.91-3.47,2.8301-7.9099,6.4801-10.0399c8.25-5.4801,17.96-8.04,26.9099-12.0901
		c4.4701-2.12,6.9701-6.9199,7.8301-11.6c0.37-5.1699-0.4301-10.53-2.74-15.1799c-3.42-5.2001-10.38-5.3601-15.9501-5.15
		c-5.95-0.22-12.4,2.64-14.47,8.58c-1.6,4.41-7.04,4.04-10.85,3.9501C1632.3337,1461.9188,1635.4838,1456.1388,1639.0337,1452.8188z
		"/>
	<path fill="#FEFEFE" stroke="#FEFEFE" stroke-width="0.0938" stroke-miterlimit="10.43" d="M1260.6737,1450.7189
		c1-4.98,9.3-6.5901,11.01-1.26c1.38,8.88-1.14,17.7999-3.1699,26.4099c-6.67,27.6101-20.26,52.76-32.37,78.2301
		c-2.38,0.9299-4.9801,2.51-7.5601,1.36c-4.46-1.72-6.8099-6.2101-8.72-10.29c-7.12-15.8199-12.73-32.26-19.03-48.41
		c-4.5,6.28-8.08,13.16-11.92,19.8501c-7.09,12.49-14.0699,25.0599-21.85,37.1499c-2,2.9401-3.88,6.11-6.87,8.1801
		c-6.9-1.2-9.23-8.51-10.86-14.35c-6.5-23.79-10.58-48.16-15.0699-72.39c-1.1901-6.38-4.3501-12.42-3.9301-19.03
		c1.02-1.84,2.29-3.51,4.05-4.6799c0.75-0.2401,2.24-0.7101,2.99-0.9501c2.5399,0.98,4.6899,2.97,5.5599,5.61
		c3.1801,8.0801,3.88,16.8301,5.47,25.3101c3.3601,20.4299,6.63,40.97,12.6801,60.8199c6.5-10.59,13.21-21.0599,19.61-31.71
		c4.87-8.04,8.85-16.5601,12.97-24.98c1.8401-4.29,3.9401-10.2101,9.6001-10.04c2.4399,2.3199,4.0399,5.29,5.33,8.4
		c7.3199,18.3099,12.85,37.41,21.97,54.97c11.3101-18.76,20.3-39.03,25.4-60.38
		C1258.3237,1469.4188,1259.4838,1460.0388,1260.6737,1450.7189z"/>
	<g>
		<path fill="#FEFEFE" stroke="#FEFEFE" stroke-width="0.0938" stroke-miterlimit="10.43" d="M1322.0238,1452.9088
			c9.0599-5.41,19.8999-6.59,30.23-5.38c11.2999,0.9,21.8099,6.8,29.3999,15.09c2.17,2.1101,3.42,4.92,4.66,7.66
			c2.17,6.9301,1.88,14.26,1.5701,21.4301c-1.62,9.9099-5.64,19.37-11.02,27.8199c-5.2001,8.3-12.29,15.13-19.3,21.89
			c-5.5399,4.9-11.5699,9.25-18.14,12.67c-8.83,3.86-18.51,5.6599-28.14,5.26c-6.59,0.5299-12.84-2.77-17.6-7.0801
			c-7.52-7.77-13.5399-18.12-12.8099-29.26c-0.38-7.83,2.15-15.39,4.4399-22.76
			C1292.4237,1481.3589,1304.3037,1463.2888,1322.0238,1452.9088z M1339.9337,1457.8389c-13.24,2.52-22.85,13.12-30.3099,23.61
			c-6.99,9.6699-12.39,20.66-14.5601,32.45c-0.6899,4.03-0.59,8.12-0.53,12.2101c0.4,7.0099,4.5901,13.1899,10.02,17.4199
			c6.3301,4.39,14.38,3.65,21.5601,2.2101c11.02-2.5801,20.65-9.27,28.41-17.3401c11.62-12.09,20.5199-28.15,19.8899-45.33
			c0.17-6.37-1.76-13.24-6.8999-17.35C1359.8337,1459.5188,1349.6338,1457.2788,1339.9337,1457.8389z"/>
	</g>
	<path fill="#FEFEFE" stroke="#FEFEFE" stroke-width="0.0938" stroke-miterlimit="10.43" d="M1425.2338,1450.7588
		c12.6799-2.2799,25.5699-4.2699,38.5-3.3999c7.53,1.1499,15.1899,3.8999,20.38,9.74c6.4299,5.9299,7.96,15.74,5.2899,23.83
		c-3.34,9.77-11.58,16.84-20.0199,22.27c-4.77,3.1-10.2001,4.88-15.12,7.66c9.1,8.7599,19.6,15.8899,29.74,23.38
		c5.1899,3.87,11.1899,6.75,15.8999,11.23c3.9601,5.22-3.08,12.37-8.61,10.01c-5.75-2.3-10.63-6.27-15.5-10
		c-11.4399-8.79-22.1899-18.4301-33.72-27.0901c-2.73-1.75-5.35-4.4199-8.8199-4.12c-1.65,0.05-3.13-0.6-4.62-1.12
		c-0.42-0.5499-1.25-1.64-1.66-2.1899c-0.04-1.37-0.0601-2.73-0.0701-4.0701c1.3-2.45,3.42-4.14,5.9701-5.1699
		c2.7799,0.0299,5.61-0.0801,8.39,0.35c5.86,0.95,11.1599-2.4,16.22-4.83c7.61-4.28,16.02-9.15,19.3199-17.7301
		c1.63-4.4199,2.0701-10.0599-1.25-13.8199c-4.62-5.67-12.23-8.27-19.39-7.87c-8.0499-0.24-16.1399,0.54-23.97,2.41
		c-3.04,0.8899-4.15,4.1699-4.86,6.9299c-2.63,11.0801-4.28,22.36-6.0599,33.61c-1.5601,12.38-3.6801,24.76-3.28,37.28
		c-0.3301,4.99,1.26,9.84,1.09,14.83c-1.49,2.4801-3.5599,5.4301-6.76,5.4501c-4.58,0.5599-7.54-4.22-7.9-8.1901
		c-0.76-28.72,5-57.0599,10.55-85.09c-0.16-3.45-4.26-5.97-2.9401-9.73
		C1413.9637,1450.1188,1420.5238,1449.3489,1425.2338,1450.7588z"/>
	<path fill="#FEFEFE" stroke="#FEFEFE" stroke-width="0.0938" stroke-miterlimit="10.43" d="M1529.3638,1448.0889
		c1.5399-1.36,3.8099-0.7101,5.71-0.9601c2.4,1.4601,4.48,3.8501,4,6.9c-0.51,9.16-3.9399,17.91-4.58,27.09
		c-1.17,8.38-1.91,16.8101-2.88,25.2101c8.15-5.25,15.72-11.42,22.4-18.4501c6.0599-6.2899,13.2999-11.3899,18.7799-18.25
		c5.11-5.74,7.86-13.24,13.4701-18.59c4.0199,0.01,7.5,3.14,8.74,6.83c0.73,4.65-2.86,8.2401-5.48,11.5901
		c-12.75,13.5699-27.4301,25.12-41.38,37.4c15.24,10.7999,29.24,23.36,45.2799,33.0199c4.89,3.24,10.9701,3.2101,16.62,3.42
		c0.25,4.09-0.01,9.21-4.1,11.42c-5.25,2.7799-11.3099,0.1799-16.12-2.3301c-10.63-6.4399-20.3199-14.26-30.29-21.64
		c-7.3999-5.85-15.0199-11.46-23.46-15.7c-4.87,1.17-5.95,6.37-7.01,10.55c-1.86,7.7899-1.5599,15.84-2.74,23.72
		c-0.6899,3.22-1.5699,6.62-3.75,9.1899c-1.46,1.8301-4.02,1.16-6.03,1.3401c-1.11-1.3401-2.6-2.4601-3.09-4.15
		c-0.5699-4.64,1.02-9.09,1.63-13.61c1.42-8.65,2.16-17.37,3.15-26.0701c1.6699-19.38,3.6899-38.74,6.83-57.95
		C1525.8237,1454.5588,1526.1837,1450.3589,1529.3638,1448.0889z"/>
	<path fill="#FEFEFE" stroke="#FEFEFE" stroke-width="0.0938" stroke-miterlimit="10.43" d="M273.4337,1477.8188
		c1.79,0.71,3.58,1.4299,5.52,1.64c1.75,2.02,4.17,3.75,6.89,4.09c4.78,3.4401,10.87,3.83,15.73,7.03
		c3.66-0.17,6.69,2.0699,10.13,2.88c3.08,1.62,6.61,1.5599,9.92,2.34c5.53,2.4301,11.84,1.65,17.59,3.41
		c8.64,0.9199,17.09,3.27,25.84,3.01c16.62-0.3501,33.43,1.21,49.86-2.02c3.15-0.64,6.47-0.12,9.52-1.29
		c5.25-1.9199,10.93-1.27,16.31-2.51c3.17-1.0399,6.46-1.5399,9.73-2.09c0.93-1.0699,2.37-1.1,3.66-1.38
		c4.37-0.74,8.5-2.46,12.87-3.21c4.35-1.6801,8.74-3.42,13.36-4.2201c0.32-0.2,0.95-0.59,1.27-0.7899
		c0.66-0.15,1.98-0.4601,2.63-0.61c-1.04,3.2799-1.41,6.75-1.27,10.2c-1.3,0.39-2.6,0.77-3.9,1.15c-0.24,0.2999-0.73,0.9-0.97,1.2
		c-2.35,0.1901-4.6,0.97-6.55,2.29c-4.74,1.67-9.15,4.12-13.88,5.78c-2.62,2.0699-6.31,1.4099-9.09,3.14
		c-2.02,1.1599-4.32,1.5399-6.62,1.61c-0.2,0.2999-0.61,0.89-0.81,1.1899c-4.17,0.41-7.9,2.55-12.08,2.88
		c-1.64,0.1-3.14,0.8-4.42,1.8101c-5.96,0.73-11.7,2.58-17.64,3.38c-3.04,1.51-6.41,1.9299-9.76,2.0699
		c-4.26,0.03-8.26,1.71-12.51,1.74c-1.72,0.6901-3.59,0.71-5.41,0.83c-5.96,1.9701-12.39,1.3701-18.45,2.9301
		c-1.38-0.04-2.75-0.03-4.11,0.01c-5.1,1.73-10.59,0.23-15.78,1.42c-3.21,0.7999-6.55,0.47-9.82,0.5199
		c-4.06-0.13-8.08,0.64-12.13,0.4801c-0.28,0.0699-0.83,0.22-1.11,0.2999c-1.96-0.72-3.88,0.7101-5.85,0.6901
		c-10.97,0.2999-21.94,0.47-32.92,0.45c-1.34-0.01-2.62-0.3099-3.83-0.88c0.26-5.27-0.55-10.51-0.36-15.78
		c-1.14-3.48-0.35-7.21-0.62-10.7899c-0.68-1.1001-1.12-2.3201-0.97-3.61C273.4138,1492.0088,273.4037,1484.9188,273.4337,1477.8188
		z"/>
	<path fill="#FEFEFE" stroke="#FEFEFE" stroke-width="0.0938" stroke-miterlimit="10.43" d="M472.8037,1519.3589
		c2.35-1.2001,4.71-2.4,7.13-3.4601c0.44,2.2101-0.5,4.1901-1.42,6.14c-0.05,3.35-0.39,6.6901-0.54,10.05
		c-0.23,0.38-0.7,1.14-0.93,1.52c-0.15,1.8099-0.42,3.6399-0.7,5.47c-1.57,0.83-3.1,1.73-4.68,2.5399
		c-8.36,4.4501-17.16,8.27-26.2,11.15c-5.38,1.86-10.66,4.1801-16.33,5.05c-3.2,1.7-6.85,2.3099-10.43,2.54
		c-1.98,1.46-4.53,1.4099-6.83,1.8999c-3.73,0.5-7.22,2.12-11.04,2.0801c-6.1,2.6699-12.97,1.6599-19.22,3.65
		c-5.02,0.4399-10.12,0.5599-15.02,1.8199c-0.35-0.01-1.03-0.02-1.37-0.03c-1.08,0.12-2.15-0.02-3.16-0.36
		c-2.59,1.8-5.87,1.3201-8.84,1.39c-24.52,1.51-49.23,1.14-73.8,0.46c-0.17-0.6699-0.51-2-0.67-2.6699
		c0.08-1.3401,0.07-2.6901,0.09-3.99c-0.26-0.41-0.78-1.2101-1.04-1.6101c0.52-6.4199-1.61-12.8099-0.23-19.1599
		c5.83,0.49,11.77-0.0701,17.53,0.9399c4.43-0.48,8.87,0.23,13.31-0.12c2.67-0.46,4.99,1.39,7.67,1.14c7-0.02,14.02,0.14,21.02-0.14
		c0.41-0.29,1.23-0.87,1.63-1.15c12.79,0.7201,25.63-0.64,38.4-1.5599c1.95-0.0801,4.05,0.13,5.77-1.02
		c4.62-0.21,9.16-1.22,13.79-1.45c1.66-1.13,3.69-1.13,5.62-1.3601c6.54-0.5299,12.88-2.37,19.35-3.4099
		c2.51-1.5801,5.77-0.99,8.22-2.67c3.49-0.92,7.12-1.1899,10.61-2.14c4.75-1.4399,9.24-3.78,14.26-4.22
		c3-2.33,6.76-3.37,10.38-4.3101C467.6737,1521.3289,470.1337,1520.0588,472.8037,1519.3589z"/>
	<path fill="#FEFEFE" stroke="#FEFEFE" stroke-width="0.0938" stroke-miterlimit="10.43" d="M466.1037,1568.5989
		c1.66-1.67,3.97-2.15,6.17-2.7101c-0.82,4.2201-0.16,8.77-1.77,12.78c0.2,0.29,0.6,0.86,0.8,1.15c-0.38,0.45-1.15,1.34-1.53,1.78
		l1.7,0.61c-0.35,0.39-1.05,1.1599-1.4,1.5399c-0.42,4.14-0.96,8.29-1.42,12.4401c-0.24,0.39-0.73,1.16-0.98,1.55
		c0.22,1.74,0.29,3.5,0.44,5.2799c-0.61,0.13-1.83,0.39-2.45,0.53c-3.14,1.5699-6.75,1.59-9.96,2.96
		c-3.41,1.64-7.23,1.86-10.85,2.79c-6.85,2.12-14.05,3.35-21.17,4.36c-4.78,1.38-9.84,1.3-14.63,2.64
		c-7.06,1.84-14.47,0.79-21.55,2.4c-7.08,0.71-14.19,0.5499-21.3,0.5499c-14.1,0.4601-28.01-2.3099-41.87-4.3999
		c-4.46-1.86-9.26-2.5-13.93-3.51c-4.04-2.12-8.97-2.41-12.62-5.04c-1.06-0.3199-2.12-0.61-3.17-0.86
		c-1.7-2.0601-4.65-1.9401-6.88-3.09c-2.53-1.3501-4.57-3.4401-7.25-4.49c-0.23-2.6901-0.55-5.39-0.58-8.0701
		c5.09-0.3099,10.12,0.65,15.17,1.0601c4.47-0.6801,8.98,0.2799,13.46-0.26c0.45,0.26,1.36,0.7799,1.82,1.0399
		c12.95-0.21,25.91-0.0599,38.87-0.0199c2,0.0099,3.87-0.91,5.87-0.88c7.4-0.1101,14.72-1.3,22.11-1.5
		c1.97-0.03,4.08-0.1001,5.71-1.37c0.16,0.1699,0.48,0.49,0.64,0.6499c5.26-1.08,10.73-1.45,16.12-1.7899
		c4.81-1.8201,10.1-1.63,15.04-2.99c3.93-1.3501,8.56-0.75,12.09-3.01c3.21-0.55,6.33-1.5,9.54-2.0701
		c3.01-0.24,5.15-3.0499,8.32-2.48c2.9-1.4,6.06-2.04,9.08-3.11c0.98-0.27,1.98-0.5,2.98-0.7
		C459.5537,1570.4889,462.7538,1569.1388,466.1037,1568.5989z"/>
	<path fill="#FEFEFE" stroke="#FEFEFE" stroke-width="0.0938" stroke-miterlimit="10.43" d="M418.8837,1624.8489
		c7.16-0.2001,13.22-4.4,19.56-7.17c-0.76,2.98-2.98,5.3199-3.82,8.25c-0.32,0.28-0.96,0.85-1.29,1.13
		c-0.59,1.4301-1.29,2.8199-2,4.21c-2.9,3.8201-4.55,8.38-7.11,12.42c-3.35,5.17-5.99,10.8199-9.48,15.86
		c-0.74,1.67-1.45,3.36-2.17,5.0601c-4.17,5.74-7.56,12.08-10.74,18.4399c-1.76,0.55-3.66,0.98-5.03,2.3101
		c-5.42,1.46-11.05,0.8099-16.59,0.9399c-9.97-0.0599-19.95,0.13-29.92-0.1c-3.02,0.4199-4.93-2.72-7.99-2.13
		c-3.06-3.74-3.84-8.73-6.15-12.89c-1.75-5.12-4.56-9.79-6.36-14.87c-1.13-2.24-1.92-4.6-2.39-7.03
		c-0.29-0.0399-0.87-0.12-1.15-0.15c-1.69-6.9399-5.99-12.97-7.63-19.95c-0.36-0.2-1.08-0.61-1.44-0.8101
		c-0.22-3.2599-1.87-6.0499-3.25-8.8899c3.26,0.88,6.14,2.6799,9.09,4.2699c2.41,0.76,5.06,0.8301,7.25,2.2401
		c2.59,1.6499,6.38,0.09,8.51,2.59c2.34-0.37,4.6,0.4299,6.83,1.09c15.73,2.65,31.79,2.02,47.66,1.08c2.85,0.01,5.61-0.72,8.37-1.36
		c2.76-1.33,6.13,0.2101,8.68-1.72c2.92-0.4,5.79-1.0699,8.68-1.64C418.9738,1625.7289,418.9138,1625.1488,418.8837,1624.8489z"/>
	<path fill="#FEFEFE" stroke="#FEFEFE" stroke-width="0.0938" stroke-miterlimit="10.43" d="M2159.9736,1705.9589
		c-0.3398-6.65,7.9402-10.13,13.51-8.25c3.23,4.39,3.6401,10.0699,2.6301,15.28c-6.5801,24.5399-11.1699,49.5699-15.25,74.6299
		c-2.3,8.9801-0.72,18.25-1.8601,27.3401c-2.9099,4.49-8.71,5.71-13.6399,4.58c-4.1001-2.92-7.25-7.17-9-11.87
		c-1.95-4.97-5.8601-8.75-8.8201-13.08c-14.47-18.7201-26.8899-38.92-38.26-59.64c-4.8599,16.38-7.21,33.4-9.8101,50.26
		c-0.8298,7.26-2.7998,14.4399-2.48,21.7999c-0.0398,4.17,0.52,8.9601-2.3298,12.4301c-1.9402,2.97-5.6702,6.0699-9.3601,4.21
		c-3.5601-1.1699-4.2-5.38-4.3301-8.61c-0.8899-9.89,2.9602-19.25,4.9102-28.77c4.53-20,8.49-40.15,11.49-60.4399
		c1.25-5.9501-0.3701-12.16,1.71-17.97c2.49-3.2101,6.7-5.17,10.73-3.7401c3.8999,0.7401,4.8801,5.1001,5.6301,8.38
		c4.4299,19.53,15.8499,36.3201,26.45,52.9601c7.4199,10.86,15.02,21.64,23.6499,31.6c5.77-24,10.05-48.34,13.1401-72.8199
		C2159.5237,1718.1688,2159.3638,1712.0388,2159.9736,1705.9589z"/>
	<g>
		<path fill="#FEFEFE" stroke="#FEFEFE" stroke-width="0.0938" stroke-miterlimit="10.43" d="M2258.0637,1698.7688
			c8.49-0.33,17.1599-0.2,25.28,2.66c9.1001,3.5601,17.8999,8.9301,23.6199,17.02c3.7202,5.03,4.7402,11.48,5.0601,17.58
			c-0.1199,5.14,0.45,10.38-0.8398,15.4401c-4.3901,19.7-16.5901,36.87-31.6001,50c-5.51,5.27-11.6799,9.8999-18.3101,13.6699
			c-11.8599,6.62-25.8499,8.53-39.24,7.4701c-11.01-1.8101-19.2-10.88-24.3499-20.2301c-4.7202-8.23-5.6702-18.0199-4.3301-27.26
			c1.74-12,6.3401-23.37,11.9399-34.0399c8.8301-16.39,21.9399-31.2101,39.22-38.84
			C2248.8638,1700.5989,2253.3738,1699.0989,2258.0637,1698.7688z M2256.9539,1711.1888c-11.4902,2.58-20.4502,11.05-27.6702,19.89
			c-12.6299,15.66-22.8201,35.08-21.24,55.76c1.02,9.4099,7.49,18.13,16.45,21.38c3.79,1.59,7.97,0.8999,11.98,0.98
			c14.4202-1.28,27.6101-9.11,37.3501-19.5701c14.77-14.22,25.3401-34.61,22.79-55.5499c-0.1699-5.75-3.0801-11.2001-7.5801-14.72
			C2280.0737,1712.2988,2268.1338,1709.6888,2256.9539,1711.1888z"/>
	</g>
	<path fill="#FEFEFE" stroke="#FEFEFE" stroke-width="0.0938" stroke-miterlimit="10.43" d="M671.5137,1715.9789
		c35.59-3.17,71.13-6.92,106.72-10.1901c5.14-0.8099,10.39,1.7001,13.12,6.11c2.27,2.77,1.56,6.51,1.67,9.8201
		c-2.17,4.2999-5.66,8.72-10.8,9.24c-13.35,1.4299-26.75,2.48-40.09,4c87.64,40.1599,175.17,80.61,262.74,120.9299
		c3.72,1,7.58-0.1,11.37-0.0599c325.72-19.13,651.44-38.1801,977.18-57.29c2.9301-0.46,5.92-0.28,8.9-0.28
		c0.96,8.25,0.8201,16.5701,1.8,24.8301c-10.26,1.25-20.64,1.27-30.9401,2.12c-317.28,18.58-634.5599,37.25-951.86,55.86
		c-8.33,0.28-16.63,1.3199-24.98,1.15c0.04-0.5701,0.12-1.7101,0.16-2.28c-88.24-40.65-176.53-81.1801-264.73-121.9301
		c5.4,8.5801,11.6,16.65,17.28,25.0701c2.31,3.34,4.96,6.53,6.68,10.26c2.21,5.6-0.38,12.84-5.87,15.51
		c-3.78,2.2-8.61,1.8099-12.41-0.11c-3.88-2.8401-6.35-7.0701-9.06-10.9401c-13.59-19.38-27.15-38.79-40.75-58.17
		C682.3737,1731.6688,676.3237,1724.2089,671.5137,1715.9789z"/>
</g>
</svg>
